<?xml version="1.0" standalone="no"?>
<!DOCTYPE svg PUBLIC "-//W3C//DTD SVG 20010904//EN"
 "http://www.w3.org/TR/2001/REC-SVG-20010904/DTD/svg10.dtd">
<svg version="1.0" xmlns="http://www.w3.org/2000/svg"
 width="512.000000pt" height="512.000000pt" viewBox="0 0 512.000000 512.000000"
 preserveAspectRatio="xMidYMid meet">
<metadata>
Created by potrace 1.14, written by Peter Selinger 2001-2017
</metadata>
<g transform="translate(0.000000,512.000000) scale(0.100000,-0.100000)"
fill="#000000" stroke="none">
<path d="M3627 5079 c7 -7 15 -10 18 -7 3 3 -2 9 -12 12 -14 6 -15 5 -6 -5z"/>
<path d="M3586 5061 c-4 -5 3 -7 14 -4 23 6 26 13 6 13 -8 0 -17 -4 -20 -9z"/>
<path d="M3625 5039 c4 -11 -7 -14 -60 -14 -36 0 -65 -3 -65 -7 0 -4 -10 -4
-22 1 -13 4 -34 5 -48 2 -14 -3 -43 -6 -66 -6 -37 0 -40 -2 -36 -24 3 -13 -1
-27 -8 -31 -8 -5 0 -7 19 -6 17 0 33 7 36 14 3 9 0 10 -14 3 -14 -8 -17 -6
-16 9 1 11 5 23 10 27 4 5 4 1 0 -7 -8 -13 -7 -13 11 0 18 14 18 14 5 -2 -17
-23 -8 -23 15 -1 16 16 16 16 9 -6 -5 -15 -4 -21 3 -17 19 11 24 -13 8 -36
-10 -13 -16 -17 -16 -9 0 8 -3 11 -7 8 -3 -4 -12 -2 -20 4 -7 6 -13 7 -13 2 0
-5 -10 -9 -22 -10 -13 0 -69 -2 -126 -4 -85 -3 -101 -6 -97 -19 4 -13 4 -13
-8 0 -6 8 -18 16 -26 18 -12 3 -12 1 0 -15 13 -16 11 -16 -16 1 -25 16 -28 16
-16 3 8 -10 9 -17 3 -17 -6 0 -14 5 -17 10 -4 6 -11 8 -16 5 -5 -4 -9 -1 -9 6
0 7 -3 9 -6 6 -4 -4 -1 -13 6 -22 15 -18 0 -20 -20 -2 -11 9 -11 8 0 -7 17
-21 17 -26 0 -36 -8 -5 -7 -9 5 -13 10 -5 14 -3 9 5 -4 7 -3 8 5 4 6 -4 11 -4
10 1 -3 18 1 36 7 30 4 -3 14 -2 24 3 12 6 21 3 34 -12 15 -17 16 -20 3 -15
-9 3 -19 2 -22 -3 -4 -6 -1 -10 4 -10 6 0 11 -4 11 -9 0 -12 -43 -8 -52 4 -5
7 -8 6 -8 -1 0 -6 -33 -11 -82 -13 -136 -4 -152 -6 -167 -15 -10 -6 -12 -6 -7
2 4 7 1 12 -7 12 -7 0 -14 -7 -14 -15 0 -8 5 -15 11 -15 6 0 4 -5 -4 -10 -13
-8 -13 -13 -2 -31 8 -11 9 -18 3 -14 -6 3 -11 1 -11 -5 0 -7 -11 -9 -29 -7
-40 7 -55 -6 -53 -47 1 -20 -3 -46 -8 -58 -5 -13 -9 -17 -9 -8 -1 9 -11 15
-26 15 -20 0 -23 -4 -19 -25 4 -22 3 -21 -9 5 l-13 30 0 -45 c0 -29 6 -50 15
-58 14 -11 14 -11 0 -6 -15 5 -17 -9 -16 -140 l1 -146 32 0 c27 0 32 -3 28
-17 -5 -17 -5 -17 6 0 12 19 40 23 40 6 0 -5 -4 -7 -10 -4 -10 6 -14 -6 -10
-39 1 -11 -3 -15 -9 -12 -6 4 -11 2 -11 -4 0 -7 8 -9 22 -4 21 6 22 6 8 -12
-14 -18 -14 -18 3 -5 14 11 17 11 17 0 0 -9 3 -10 8 -4 4 6 16 17 26 25 18 14
19 13 12 -5 -4 -11 -4 -16 0 -12 4 4 14 1 22 -6 13 -10 14 -9 7 3 -4 8 -17 25
-28 37 -10 12 -16 27 -12 33 6 9 2 9 -13 1 -27 -14 -32 -14 -26 2 5 15 134 19
134 4 0 -5 8 -3 17 4 11 10 14 10 9 2 -4 -7 -3 -13 1 -13 5 0 15 6 23 13 12
10 12 9 1 -5 -16 -21 -8 -23 22 -6 22 12 76 18 75 8 0 -3 1 -7 2 -10 11 -29 1
-56 -13 -32 -2 4 -3 2 -1 -4 5 -24 -19 -35 -38 -17 -12 11 -18 12 -18 4 0 -8
-7 -10 -21 -6 -14 5 -19 4 -15 -4 5 -7 1 -8 -10 -4 -15 5 -15 7 0 15 9 5 16
14 16 19 0 6 -5 7 -12 3 -6 -4 -8 -3 -5 3 4 6 0 13 -8 17 -8 3 -15 1 -15 -3 0
-11 -19 -9 -37 2 -16 10 -33 0 -33 -19 0 -15 12 -19 24 -7 3 4 13 8 21 9 16 2
28 -23 15 -31 -6 -4 -10 -12 -10 -18 0 -7 4 -6 10 3 6 9 13 11 18 5 9 -13 62
-14 62 -2 0 6 5 5 13 0 17 -15 47 -12 47 4 0 7 4 13 10 13 5 0 7 -8 4 -17 -5
-15 -4 -16 5 -3 9 13 11 13 11 0 0 -13 1 -13 10 0 9 13 10 13 11 0 0 -10 3 -8
9 5 6 14 9 15 9 5 1 -20 51 -22 51 -2 0 7 -5 10 -12 6 -6 -4 -8 -3 -4 4 3 6
15 9 26 7 14 -3 20 2 20 15 0 13 -6 17 -22 14 -21 -4 -21 -4 -3 5 11 5 24 5
28 1 12 -11 3 -45 -11 -43 -7 2 -12 -3 -12 -10 0 -8 7 -14 15 -14 8 0 15 4 15
9 0 5 6 6 13 1 16 -11 97 -11 97 0 0 5 7 1 16 -7 8 -9 20 -14 25 -10 6 3 17 0
25 -7 12 -9 13 -9 9 2 -4 11 6 14 45 14 40 0 49 -3 45 -15 -3 -8 4 -4 16 10
11 14 18 19 14 13 -8 -16 -9 -16 157 -11 72 3 80 12 48 55 -14 17 -14 17 7 -1
12 -10 22 -21 21 -25 -2 -20 5 -27 28 -29 15 -1 34 4 42 10 13 10 14 10 8 1
-5 -9 -1 -13 11 -13 11 0 25 6 32 13 11 9 12 9 7 0 -5 -9 2 -12 24 -9 23 3 33
-2 41 -16 8 -16 8 -19 -1 -13 -9 6 -9 2 -1 -14 7 -13 8 -21 2 -21 -6 0 -8 -7
-5 -15 6 -16 -17 -18 -139 -17 -31 0 -45 -3 -41 -10 4 -7 2 -8 -4 -4 -22 13
-52 15 -52 3 0 -8 -3 -7 -9 2 -5 8 -18 12 -30 8 -12 -3 -21 -1 -21 5 0 5 -5 6
-11 3 -6 -4 -8 -13 -6 -19 3 -7 -1 -13 -8 -13 -7 0 -11 6 -8 12 5 15 -24 28
-32 14 -4 -5 -12 -6 -18 -2 -17 11 -49 14 -43 5 2 -4 -7 -7 -22 -6 -15 1 -27
2 -27 4 0 1 -10 3 -22 4 -13 2 -23 0 -23 -3 0 -8 -54 -6 -67 2 -17 10 -24 -5
-11 -22 11 -14 10 -14 -7 0 -11 9 -32 17 -48 17 -24 0 -26 -3 -15 -17 9 -11 7
-11 -9 2 -22 20 -67 21 -92 2 -10 -7 -13 -7 -9 0 4 6 -2 11 -13 11 -10 0 -19
-4 -19 -8 0 -4 5 -8 12 -8 6 0 8 -3 5 -6 -4 -4 -14 -1 -23 7 -19 16 -171 22
-180 7 -3 -5 -10 -6 -15 -2 -5 3 -26 8 -45 10 -27 3 -34 1 -28 -8 6 -9 3 -9
-9 1 -16 12 -17 9 -17 -32 0 -27 -5 -47 -12 -50 -10 -4 -10 -7 0 -15 9 -6 6
-11 -12 -20 -23 -10 -36 -7 -36 9 0 4 9 6 19 4 14 -3 18 1 14 12 -3 8 -9 10
-12 5 -3 -5 -13 -8 -21 -7 -12 2 -16 -7 -17 -31 0 -19 3 -34 8 -34 5 0 9 -5 9
-11 0 -5 -5 -7 -12 -3 -7 5 -8 3 -3 -6 6 -10 12 -7 27 11 11 15 16 18 12 7 -7
-20 11 -25 22 -6 4 7 3 8 -4 4 -8 -5 -10 -2 -6 8 6 17 -5 21 -22 9 -5 -5 -1 0
9 10 11 9 24 17 31 17 6 0 4 -5 -4 -10 -9 -6 -10 -10 -3 -10 6 0 10 -8 8 -18
-5 -28 6 -37 49 -37 33 -1 40 -4 41 -23 1 -12 -4 -27 -12 -33 -7 -6 -13 -17
-13 -23 0 -7 4 -6 9 2 7 11 9 11 13 0 4 -8 21 -13 46 -13 38 0 41 -1 44 -32 2
-18 0 -37 -5 -42 -14 -14 5 -20 66 -22 35 -1 54 -6 50 -12 -4 -6 -1 -7 8 -1
21 13 91 15 83 2 -5 -7 -2 -8 7 -2 8 5 46 9 84 10 61 1 72 -2 83 -20 13 -21
13 -21 7 2 -5 16 -2 22 10 22 10 0 14 -5 9 -12 -6 -10 -4 -10 7 0 7 6 37 12
67 12 40 0 51 -3 46 -12 -6 -10 -4 -10 7 0 8 7 42 12 89 12 47 0 81 -5 89 -12
11 -10 13 -10 7 0 -5 8 1 12 21 12 27 0 29 -2 30 -46 1 -38 -1 -45 -14 -40
-12 5 -13 4 -5 -7 7 -8 9 -17 5 -20 -3 -4 -1 -7 5 -7 7 0 12 5 12 12 0 6 7 3
15 -8 13 -16 14 -16 9 -1 -7 18 10 19 49 2 15 -6 16 -10 5 -16 -11 -7 -11 -9
1 -9 8 0 4 -8 -10 -20 -13 -10 -19 -19 -13 -20 5 0 15 5 21 11 8 8 13 7 18 -2
5 -8 4 -10 -3 -5 -7 4 -12 3 -12 -2 0 -6 -20 -9 -44 -8 -31 1 -42 5 -38 14 2
7 1 12 -4 11 -25 -4 -36 2 -29 19 5 15 5 15 -7 2 -7 -8 -20 -21 -28 -29 -13
-12 -12 -13 6 -8 12 2 28 1 35 -3 7 -5 -1 -8 -22 -7 -22 2 -33 7 -31 16 1 7
-3 11 -10 8 -7 -2 -12 -9 -11 -14 1 -5 -4 -10 -12 -10 -7 0 -11 5 -9 12 3 6
-5 11 -17 12 -15 1 -18 -1 -10 -11 8 -9 7 -13 -4 -13 -8 0 -11 5 -8 10 4 7 -1
7 -13 2 -27 -11 -74 -13 -68 -3 8 12 -10 10 -26 -4 -12 -11 -12 -10 -1 4 11
15 10 17 -8 15 -12 -1 -19 -7 -17 -13 3 -7 -3 -11 -12 -10 -12 2 -17 13 -17
37 0 31 3 34 29 34 16 0 31 5 33 10 2 6 -13 10 -34 9 -23 -1 -37 -6 -36 -13 2
-6 -1 -11 -5 -11 -4 0 -8 -9 -8 -20 0 -11 4 -20 9 -20 4 0 5 -5 1 -11 -4 -7
-7 -26 -6 -43 0 -17 -5 -34 -11 -38 -9 -6 -8 -8 2 -8 11 0 11 -3 0 -17 -10
-11 -10 -14 -1 -9 9 5 12 -3 12 -28 0 -22 -5 -36 -12 -36 -9 0 -9 -3 -2 -8 15
-10 15 -492 0 -492 -8 0 -8 -2 0 -8 15 -10 15 -524 0 -534 -8 -5 -7 -8 2 -8 6
0 12 -11 12 -24 0 -20 -5 -25 -27 -25 -54 -2 -63 -4 -63 -18 0 -10 5 -11 19
-3 11 5 26 10 33 10 7 -1 -1 -7 -18 -14 -29 -13 -54 -46 -35 -46 5 0 11 6 14
13 3 6 4 2 4 -10 -1 -12 -6 -21 -11 -20 -6 1 -11 -18 -11 -45 1 -25 -2 -45 -6
-42 -4 2 -10 -2 -12 -8 -3 -8 -6 -6 -6 5 -1 9 -5 17 -11 17 -5 0 -10 -8 -10
-17 0 -15 -2 -16 -10 -3 -5 8 -6 17 -2 20 4 3 8 16 10 29 2 20 0 22 -13 11 -9
-7 -14 -19 -11 -26 3 -7 0 -16 -6 -20 -7 -4 -6 -9 3 -15 9 -5 9 -9 3 -9 -7 0
-14 -10 -17 -22 -5 -17 -9 -19 -20 -9 -12 9 -16 8 -21 -5 -10 -26 12 -43 28
-21 18 23 21 22 21 -8 0 -14 -6 -27 -13 -30 -7 -3 -10 0 -7 5 3 6 2 10 -4 10
-5 0 -13 -5 -16 -10 -4 -6 -15 -8 -26 -5 -20 7 -21 4 -21 -57 0 -34 -1 -36
-29 -33 -17 3 -29 -1 -29 -7 0 -6 -3 -8 -7 -5 -12 12 -33 -14 -25 -32 18 -40
9 -56 -35 -59 l-43 -3 0 -50 0 -49 -35 5 c-27 3 -37 0 -45 -15 -8 -14 -8 -20
0 -20 7 0 8 -5 3 -13 -4 -6 -6 -20 -5 -30 3 -17 -1 -19 -52 -21 -28 -1 -30 -4
-33 -51 -2 -28 -8 -54 -14 -60 -13 -13 -11 -28 3 -19 7 5 8 3 4 -5 -6 -9 -13
-8 -27 5 -23 20 -24 25 -5 18 8 -3 16 -1 19 3 3 5 -9 9 -28 10 -29 0 -34 -3
-37 -28 -3 -15 -1 -26 4 -23 4 3 8 0 8 -5 0 -6 -8 -11 -17 -12 -14 0 -13 -2 5
-9 12 -5 22 -12 22 -14 0 -3 -7 -3 -15 0 -13 6 -20 -6 -16 -29 1 -4 -6 -10
-14 -13 -20 -8 -9 -24 13 -18 14 5 14 4 3 -4 -12 -9 -12 -13 -2 -26 8 -9 20
-16 28 -16 8 0 12 -4 9 -8 -3 -5 1 -9 8 -9 8 0 12 7 9 15 -5 12 -2 12 15 3 14
-7 22 -8 22 -2 0 6 7 8 16 4 8 -3 13 -12 10 -20 -3 -8 -1 -11 4 -8 6 3 10 13
10 22 0 14 3 14 25 -1 18 -12 23 -12 19 -3 -3 8 2 14 10 14 8 0 12 -5 9 -10
-4 -6 -1 -7 7 -2 14 8 63 16 117 17 30 1 39 15 19 30 -6 4 -5 12 3 21 14 18 1
29 -19 16 -13 -7 -13 -9 0 -9 9 0 11 -3 5 -8 -13 -9 -18 -35 -5 -27 5 3 10 2
10 -3 0 -6 -11 -9 -24 -8 -13 0 -22 4 -19 9 2 4 0 7 -6 7 -5 0 -12 -6 -14 -12
-4 -10 -6 -10 -6 0 -1 7 6 15 14 19 14 5 14 8 0 32 l-16 26 20 -22 c10 -13 22
-23 25 -23 9 0 3 24 -8 32 -5 3 8 6 29 6 21 0 41 6 46 14 5 7 9 8 9 3 0 -6 12
-11 26 -11 22 0 25 4 24 31 -4 62 -2 64 43 67 27 2 41 7 40 16 -2 6 2 12 9 12
6 0 3 7 -8 16 -10 8 -13 12 -6 9 8 -4 13 -2 11 6 -4 35 1 39 45 35 37 -3 44
-1 39 12 -5 11 -3 13 7 7 9 -6 11 -4 5 4 -4 7 -8 26 -9 42 -2 26 1 29 27 29
17 0 26 -4 22 -11 -4 -6 2 -5 14 3 12 7 21 16 21 19 0 4 13 5 29 3 18 -2 34 3
43 13 9 12 9 15 1 9 -7 -4 -13 -2 -13 3 0 6 5 11 12 11 7 0 4 6 -5 13 -18 13
-13 26 18 44 11 6 19 16 18 22 -2 6 2 11 7 11 13 0 13 -13 -1 -27 -8 -8 -1
-10 23 -9 27 1 33 6 34 24 1 25 -11 38 -21 22 -4 -6 -1 -19 6 -28 12 -16 12
-16 -4 -1 -20 17 -13 49 9 49 8 0 14 9 14 21 0 11 4 18 9 14 23 -14 70 -12 76
4 3 8 2 17 -4 19 -6 2 -7 12 -1 27 5 12 6 26 3 29 -7 7 17 9 60 6 26 -1 27 0
27 49 l0 50 45 -2 c25 -1 45 2 45 7 0 4 6 6 14 3 15 -6 16 17 1 30 -4 4 -5 2
-1 -4 4 -7 3 -13 -2 -13 -16 0 -22 13 -11 27 9 10 8 13 0 13 -8 0 -9 5 -3 17
10 18 72 25 72 8 0 -5 4 -4 9 4 5 7 8 28 6 47 -1 18 2 31 7 28 4 -3 8 -1 8 5
0 5 -6 12 -12 14 -7 3 6 4 30 2 23 -1 45 1 47 6 3 4 24 6 48 4 23 -1 36 -1 29
2 -9 4 -10 8 -2 18 6 7 10 17 9 21 -1 5 -1 19 0 32 1 19 6 22 45 22 l43 0 -3
45 c-3 31 0 45 9 46 6 1 28 2 49 3 20 0 40 5 45 10 4 5 3 6 -4 2 -8 -4 -11 7
-10 38 l1 45 41 -1 c34 0 41 -4 42 -21 1 -12 -3 -28 -10 -36 -9 -12 -9 -13 1
-7 6 4 12 2 12 -3 0 -6 -6 -11 -12 -11 -9 0 -10 -3 -2 -8 15 -10 16 -204 0
-195 -8 5 -8 3 0 -8 15 -20 18 -82 3 -73 -9 5 -9 3 -3 -7 14 -22 14 -103 1
-111 -9 -6 -9 -8 1 -8 9 0 12 -13 9 -44 l-3 -43 40 2 c56 3 55 2 49 25 -3 13
0 20 8 21 9 0 7 3 -4 7 -16 7 -16 9 -2 27 9 11 13 13 9 5 -7 -13 -5 -13 8 -2
9 7 22 12 30 11 41 -5 45 0 42 54 -2 32 0 47 5 38 7 -11 9 -11 14 0 4 11 6 11
6 1 1 -8 6 -10 14 -5 6 4 18 8 25 9 27 5 42 14 41 26 0 10 -2 10 -6 1 -10 -26
-19 -12 -18 29 1 42 1 43 37 43 42 0 59 12 38 25 -9 6 -10 10 -3 10 7 0 10 17
10 44 -2 38 -5 45 -22 43 -11 -1 -19 3 -18 10 2 6 -7 15 -18 18 -17 6 -18 9
-7 23 11 14 10 15 -7 9 -17 -6 -18 -5 -5 6 18 14 24 37 11 37 -5 0 -12 -6 -14
-12 -3 -7 -4 -2 -3 12 3 35 14 50 32 43 12 -5 12 -7 -3 -20 -16 -13 -16 -13 7
-3 23 10 23 10 7 -3 -16 -13 -16 -15 -2 -21 9 -3 13 -11 9 -17 -4 -7 -3 -9 4
-5 11 7 11 -19 -1 -30 -15 -15 -6 -26 11 -13 14 11 13 10 -2 -9 -18 -21 -13
-30 9 -14 12 8 13 51 2 69 -4 6 -1 14 5 16 10 4 9 6 -1 6 -11 1 -11 4 -1 16
10 12 10 18 0 30 -9 11 -9 15 -1 15 7 0 9 5 4 13 -11 18 -12 67 -1 67 5 0 6 5
2 11 -12 20 -22 -11 -19 -63 2 -42 0 -48 -14 -42 -9 4 -23 7 -31 8 -12 0 -15
19 -15 102 0 58 4 100 9 97 5 -4 5 0 0 8 -5 8 -9 95 -10 195 0 99 -3 185 -5
190 -3 5 -4 27 -3 49 6 129 5 153 -7 160 -5 4 -9 14 -8 23 0 14 2 13 8 -3 7
-15 9 -11 9 18 0 37 -1 38 -18 20 -9 -10 -15 -22 -12 -28 3 -5 -1 -4 -9 3 -12
11 -11 15 4 23 9 6 17 15 17 21 0 7 -4 7 -13 -1 -8 -6 -17 -8 -20 -4 -4 3 -7
-2 -7 -12 0 -10 -3 -15 -7 -12 -9 9 -11 187 -2 182 12 -8 19 26 9 43 -9 14
-10 13 -5 -5 4 -13 2 -23 -2 -23 -14 0 -14 103 0 112 8 5 8 8 1 8 -11 0 -16
82 -16 300 0 48 -5 91 -12 99 -6 8 -6 12 -1 9 6 -4 10 21 10 67 1 41 -3 71 -7
69 -4 -3 -8 -1 -8 5 0 5 6 11 13 14 8 3 6 10 -8 22 -16 13 -16 15 -3 11 13 -4
16 0 12 21 -3 15 -7 30 -10 35 -3 4 -1 8 3 8 10 0 8 98 -3 124 -5 14 -4 17 5
11 10 -6 11 -3 2 13 -13 25 -14 35 -3 28 5 -3 9 1 9 9 0 8 -4 12 -8 9 -5 -2
-15 9 -24 26 -17 32 -25 36 -41 20 -7 -7 -11 -6 -11 4 0 8 9 17 19 19 14 4 25
-4 39 -26 14 -23 19 -26 17 -12 -2 11 -10 25 -18 32 -13 10 -13 12 3 18 9 4
17 12 17 17 0 6 -6 5 -15 -2 -15 -13 -21 -2 -7 16 4 5 -3 -2 -15 -16 -19 -21
-24 -22 -35 -11 -7 8 -8 11 -3 8 6 -3 17 4 24 16 11 18 11 20 0 10 -19 -19
-34 -16 -18 4 11 13 11 15 1 9 -10 -6 -13 -3 -12 10 7 61 2 70 -40 68 -29 -1
-44 5 -59 22 -20 23 -20 23 0 29 21 7 23 13 9 35 -9 13 -10 13 -11 0 -1 -8 -1
-19 0 -24 1 -5 -5 -6 -14 -2 -10 4 -14 2 -9 -5 4 -8 -1 -9 -17 -4 -19 5 -21 4
-9 -4 10 -7 11 -11 3 -11 -7 0 -10 -7 -7 -15 4 -10 0 -15 -12 -15 -11 0 -15 3
-9 8 6 4 11 18 10 32 0 15 5 24 13 22 6 -1 12 3 12 9 0 5 4 8 9 4 5 -3 12 -2
15 3 2 4 -6 8 -20 8 -13 0 -24 -4 -24 -10 0 -6 -5 -5 -12 2 -7 7 -35 12 -64
12 -33 0 -54 5 -57 13 -4 10 -6 10 -6 0 -1 -7 -11 -13 -22 -13 -17 0 -19 3
-10 14 8 10 9 16 1 21 -5 3 -10 19 -10 34 0 22 -4 27 -25 27 -21 0 -24 -4 -20
-24 2 -14 1 -21 -3 -17 -4 3 -8 11 -8 16 -1 5 -2 13 -3 17 0 5 -25 10 -53 11
-29 2 -58 3 -65 4 -7 0 -9 5 -5 11 4 6 7 25 8 42 1 29 -1 31 -45 34 -25 1 -63
2 -83 2 -26 0 -38 4 -41 16 -4 14 -5 14 -6 -2 -1 -19 -2 -19 -21 -1 -14 13
-19 14 -15 4z m169 -37 c2 -4 -4 -9 -15 -9 -11 -1 -17 2 -14 8 7 11 22 12 29
1z m29 -6 c3 -8 0 -17 -7 -19 -10 -4 -12 1 -9 14 6 23 9 24 16 5z m-29 -31 c3
-8 1 -15 -3 -15 -5 0 -11 7 -15 15 -3 8 -1 15 3 15 5 0 11 -7 15 -15z m-29 -5
c3 -5 1 -10 -4 -10 -6 0 -11 5 -11 10 0 6 2 10 4 10 3 0 8 -4 11 -10z m65 0
c0 -5 -5 -10 -11 -10 -5 0 -7 5 -4 10 3 6 8 10 11 10 2 0 4 -4 4 -10z m-190
-50 c-8 -5 -7 -9 4 -13 9 -4 16 -1 16 5 0 6 3 8 6 5 4 -4 1 -13 -6 -22 -10
-12 -10 -15 1 -15 11 0 11 -2 -1 -10 -8 -5 -24 -7 -35 -3 -17 5 -18 4 -6 -11
9 -10 10 -16 2 -16 -6 0 -11 4 -11 10 0 5 -8 7 -17 4 -14 -4 -15 -3 -5 4 8 5
14 13 14 18 -1 5 5 8 12 6 7 -1 13 5 13 13 0 19 -7 19 -37 -1 l-25 -16 23 20
c15 14 18 22 10 24 -7 3 2 5 20 5 18 0 28 -3 22 -7z m-475 -18 c-3 -3 -11 0
-18 7 -9 10 -8 11 6 5 10 -3 15 -9 12 -12z m-29 -34 c3 -4 -1 -5 -10 -4 -8 1
-18 5 -22 8 -3 4 1 5 10 4 8 -1 18 -5 22 -8z m884 -2 c0 -2 -7 -7 -16 -10 -8
-3 -12 -2 -9 4 6 10 25 14 25 6z m-40 -12 c0 -8 -19 -13 -24 -6 -3 5 1 9 9 9
8 0 15 -2 15 -3z m-543 -36 c-5 -29 -24 -35 -21 -6 3 29 2 28 14 28 5 0 8 -10
7 -22z m37 7 c3 -8 -2 -18 -11 -23 -14 -8 -13 -11 4 -23 25 -18 28 -29 11 -41
-9 -7 -7 -8 7 -3 14 4 17 3 9 -5 -8 -8 -19 -6 -39 4 -16 8 -32 13 -36 10 -4
-2 -7 4 -6 15 1 15 4 17 14 9 7 -6 13 -7 13 -2 0 4 7 -1 15 -12 8 -10 15 -14
15 -8 0 15 -25 36 -33 27 -4 -3 -7 -2 -7 4 0 5 3 13 8 17 4 4 8 12 8 17 1 5 2
14 3 19 2 15 18 12 25 -5z m126 8 l25 -7 -25 -7 -25 -6 25 -12 c23 -10 23 -11
3 -7 -27 5 -29 -1 -6 -26 16 -18 16 -18 -2 -12 -12 5 -16 4 -12 -3 10 -16 -72
-22 -85 -6 -6 7 -7 13 -2 13 5 0 0 7 -10 15 -15 12 -17 17 -7 29 7 8 10 20 6
26 -7 11 75 14 115 3z m-793 -16 c0 -7 -9 -14 -20 -14 -19 -2 -19 -2 -1 12 11
8 19 15 20 15 0 0 1 -6 1 -13z m853 -2 c0 -2 -6 -8 -13 -14 -10 -8 -14 -7 -14
2 0 8 6 14 14 14 7 0 13 -1 13 -2z m-890 -35 c0 -5 -2 -10 -4 -10 -3 0 -8 5
-11 10 -3 6 -1 10 4 10 6 0 11 -4 11 -10z m869 -14 c9 -11 9 -16 0 -22 -7 -4
-9 -3 -5 4 3 6 -2 15 -11 21 -10 6 -13 11 -7 11 6 0 17 -6 23 -14z m600 0 c9
-10 8 -15 -3 -19 -16 -7 -26 1 -26 20 0 17 14 17 29 -1z m-1434 -5 c3 -5 0
-13 -6 -17 -7 -4 -9 -3 -5 4 3 5 0 13 -6 15 -9 4 -10 6 -1 6 6 1 14 -3 18 -8z
m685 -88 c8 -9 8 -13 0 -13 -6 0 -15 11 -22 25 -11 25 -31 26 -22 1 7 -19 -15
-31 -29 -16 -9 10 -8 12 6 7 9 -4 17 -2 17 3 0 6 -6 10 -12 10 -7 0 -5 5 5 11
9 6 15 16 11 22 -3 7 4 1 15 -13 12 -14 26 -31 31 -37z m50 30 c0 -3 -9 -3
-21 0 -15 4 -19 2 -15 -9 3 -8 1 -14 -4 -14 -11 0 -14 23 -4 32 6 7 44 -2 44
-9z m32 -20 c-6 -3 -9 -10 -6 -15 4 -7 2 -8 -5 -4 -9 6 -9 11 0 22 6 8 15 12
18 8 3 -4 0 -9 -7 -11z m-955 -75 c-3 -8 -6 -5 -6 6 -1 11 2 17 5 13 3 -3 4
-12 1 -19z m7 -34 c20 -19 20 -25 1 -18 -8 4 -15 10 -15 15 0 5 -5 9 -11 9 -5
0 -7 -4 -4 -10 3 -6 -1 -7 -10 -3 -13 5 -14 7 -3 14 18 12 24 11 42 -7z m1761
-4 c-3 -5 -1 -10 5 -10 6 0 8 -5 5 -10 -4 -6 -10 -8 -15 -5 -5 3 -12 1 -15 -5
-4 -6 -1 -9 6 -8 6 2 14 -3 17 -11 2 -8 0 -11 -6 -7 -6 3 -14 1 -18 -6 -4 -7
-3 -10 1 -5 5 4 17 0 27 -10 11 -9 18 -11 18 -5 0 7 -5 12 -11 12 -8 0 -8 4 0
14 8 10 9 16 1 19 -6 3 -5 4 2 3 7 -1 12 -19 13 -42 0 -21 4 -44 8 -51 4 -6 3
-14 -3 -18 -15 -9 -12 -28 3 -19 6 4 4 -2 -5 -13 -23 -25 -23 -40 -1 -22 15
13 15 12 2 -8 -8 -13 -17 -23 -21 -23 -4 0 -5 -8 -2 -17 5 -15 4 -15 -4 -3 -7
9 -7 19 -2 26 6 6 7 14 3 17 -3 4 -1 13 6 21 9 11 7 14 -14 14 -20 0 -23 -3
-14 -14 7 -8 7 -19 1 -30 -8 -15 -9 -15 -15 0 -4 10 -3 15 3 11 6 -3 10 -2 10
4 0 5 -5 13 -10 16 -8 5 -7 11 1 21 9 11 9 14 -1 14 -10 0 -10 3 -1 14 9 10 9
16 1 21 -8 5 -8 11 -1 19 6 7 8 16 4 20 -11 11 -10 59 2 73 12 15 29 17 20 3z
m-405 -219 c1 10 4 9 11 -3 6 -11 16 -15 27 -11 16 6 16 6 0 -11 -10 -9 -24
-14 -30 -11 -7 4 -4 0 6 -9 10 -8 22 -13 27 -11 4 3 11 0 15 -6 4 -8 3 -9 -5
-5 -6 4 -14 1 -17 -7 -3 -8 -17 -13 -32 -13 -42 2 -61 -11 -57 -37 4 -17 0
-23 -16 -24 -21 -2 -21 -1 -3 20 19 22 19 22 -2 4 -21 -18 -21 -17 -21 10 0
15 2 22 4 16 3 -7 9 -13 14 -13 6 0 7 5 3 12 -4 7 -3 8 4 4 13 -8 31 23 25 42
-3 7 -1 12 4 11 20 -3 34 2 28 11 -3 5 -12 7 -20 3 -9 -3 -15 1 -15 10 0 19
21 27 38 14 8 -6 12 -5 12 4z m381 -44 c-10 -9 -11 -8 -5 6 3 10 9 15 12 12 3
-3 0 -11 -7 -18z m-281 -17 c8 -5 11 -10 5 -10 -5 0 -17 5 -25 10 -8 5 -10 10
-5 10 6 0 17 -5 25 -10z m329 0 c-6 -5 -18 -6 -26 -3 -19 8 -16 11 13 11 17 0
22 -3 13 -8z m-24 -20 c3 -6 -1 -7 -9 -4 -18 7 -21 14 -7 14 6 0 13 -4 16 -10z
m-1393 -24 c7 4 7 0 0 -12 -5 -11 -7 -25 -5 -31 3 -7 1 -13 -4 -13 -4 0 -8 17
-9 38 0 20 1 31 3 24 3 -6 9 -9 15 -6z m138 0 c-7 -7 -13 -7 -20 0 -6 6 -3 10
10 10 13 0 16 -4 10 -10z m741 0 c1 -6 0 -15 -1 -21 -1 -5 -3 -19 -4 -29 0
-11 -6 -21 -12 -23 -11 -4 -11 43 0 54 3 4 1 11 -4 18 -7 8 -5 12 5 12 8 0 16
-5 16 -11z m-845 -18 c5 -7 3 -8 -6 -3 -10 6 -12 4 -6 -11 5 -14 4 -16 -5 -7
-6 6 -8 16 -5 22 9 14 13 14 22 -1z m114 -8 c-6 -11 -13 -20 -16 -20 -2 0 0 9
6 20 6 11 13 20 16 20 2 0 0 -9 -6 -20z m185 11 c3 -5 2 -12 -3 -15 -5 -3 -9
1 -9 9 0 17 3 19 12 6z m-617 -15 c7 -4 10 -12 6 -17 -3 -5 -10 -7 -15 -4 -5
4 -9 1 -9 -5 0 -15 -17 -3 -30 20 -8 16 -7 18 13 16 13 -1 28 -6 35 -10z m72
10 c0 -3 -4 -8 -10 -11 -5 -3 -10 -1 -10 4 0 6 5 11 10 11 6 0 10 -2 10 -4z
m470 0 c0 -2 -6 -9 -14 -15 -11 -9 -16 -9 -22 0 -4 7 -3 9 4 5 6 -3 13 -2 17
4 6 10 15 14 15 6z m1157 -9 c0 -7 -11 -13 -23 -13 -12 0 -20 4 -18 8 3 5 9 6
14 3 5 -3 11 -1 15 5 8 13 12 13 12 -3z m-1366 -24 c-12 -20 -14 -14 -5 12 4
9 9 14 11 11 3 -2 0 -13 -6 -23z m868 1 c15 10 25 -14 11 -27 -10 -9 -11 -9
-6 1 4 6 2 12 -3 12 -6 0 -11 -6 -11 -12 0 -9 -4 -8 -11 2 -9 12 -10 11 -6 -8
3 -12 1 -20 -4 -17 -4 3 -7 19 -6 34 1 22 5 27 14 19 7 -5 17 -7 22 -4z m-753
-6 c4 -7 3 -8 -4 -4 -7 4 -12 2 -12 -5 0 -7 -3 -10 -6 -6 -6 5 3 27 11 27 2 0
7 -5 11 -12z m454 2 c0 -5 -5 -10 -11 -10 -5 0 -7 5 -4 10 3 6 8 10 11 10 2 0
4 -4 4 -10z m-347 -15 c-3 -9 -8 -14 -10 -11 -3 3 -2 9 2 15 9 16 15 13 8 -4z
m1120 0 c-3 -9 -8 -14 -10 -11 -3 3 -2 9 2 15 9 16 15 13 8 -4z m-1490 -127
c-2 -5 0 -8 4 -8 18 0 11 -39 -8 -45 -11 -4 -16 -11 -13 -17 4 -7 2 -8 -5 -4
-6 4 -8 12 -5 18 4 6 1 8 -7 6 -8 -3 -13 -10 -12 -16 1 -5 -5 -9 -14 -8 -9 2
-17 10 -19 19 -1 10 1 15 6 12 4 -3 10 2 13 10 4 10 1 12 -10 8 -11 -4 -14 -2
-11 8 3 8 12 13 22 11 9 -2 16 1 16 7 0 5 11 8 24 7 13 0 22 -4 19 -8z m328
-5 c12 -16 12 -17 -2 -6 -9 7 -20 9 -24 5 -5 -4 -5 -1 -1 6 9 16 11 15 27 -5z
m-194 -35 c-8 -27 12 -22 23 7 11 30 19 32 17 5 -1 -11 -5 -20 -10 -20 -5 0
-3 -8 4 -17 12 -15 12 -16 -1 -8 -8 5 -22 10 -30 10 -10 0 -14 8 -12 25 4 25
4 25 -16 5 -11 -11 -17 -24 -14 -29 3 -5 0 -6 -7 -2 -9 6 -8 13 5 27 9 10 14
19 10 19 -4 0 -4 5 -1 10 10 17 37 -11 32 -32z m101 17 c-3 -3 -9 2 -12 12 -6
14 -5 15 5 6 7 -7 10 -15 7 -18z m275 10 c-3 -9 -8 -14 -10 -11 -3 3 -2 9 2
15 9 16 15 13 8 -4z m162 6 c3 -5 2 -12 -3 -15 -5 -3 -9 1 -9 9 0 17 3 19 12
6z m-615 -11 c0 -5 -2 -10 -4 -10 -3 0 -8 5 -11 10 -3 6 -1 10 4 10 6 0 11 -4
11 -10z m400 4 c0 -8 -19 -13 -24 -6 -3 5 1 9 9 9 8 0 15 -2 15 -3z m-147 -18
c3 3 4 -1 3 -10 -1 -8 -5 -18 -9 -21 -4 -3 -5 -2 -2 2 3 3 -3 16 -12 27 -14
15 -14 18 -2 8 9 -6 18 -9 22 -6z m381 -28 c-3 -4 -11 -5 -19 -1 -21 7 -19 12
4 10 11 0 18 -5 15 -9z m-909 -57 c3 -5 2 -12 -3 -15 -5 -3 -9 1 -9 9 0 17 3
19 12 6z m1073 -346 c-3 -3 -9 2 -12 12 -6 14 -5 15 5 6 7 -7 10 -15 7 -18z
m89 -92 c-4 -3 1 -12 11 -20 14 -10 14 -12 1 -8 -10 4 -16 0 -16 -10 0 -8 7
-15 16 -16 11 0 12 -2 3 -6 -10 -4 -10 -9 3 -23 14 -16 14 -18 -2 -31 -16 -12
-17 -12 -6 2 13 16 8 29 -9 29 -5 0 -7 -4 -4 -8 3 -5 -12 -8 -32 -7 -22 1 -36
6 -34 13 1 7 -2 12 -6 12 -4 0 -8 9 -8 20 0 11 4 20 8 20 4 0 8 6 8 14 0 8 9
12 25 11 14 -2 27 1 31 6 3 5 8 9 11 9 4 0 3 -3 0 -7z m52 -16 c8 -10 7 -14
-2 -14 -8 0 -14 6 -14 14 0 7 1 13 2 13 2 0 8 -6 14 -13z m-14 -106 c-16 -19
-16 -20 4 -18 12 1 21 7 21 14 0 7 5 13 10 13 7 0 7 -6 1 -19 -9 -15 -34 -21
-60 -12 -5 1 30 41 37 41 3 0 -3 -9 -13 -19z m598 -35 c15 -12 16 -18 7 -35
-6 -12 -13 -21 -16 -21 -2 0 0 9 6 19 8 16 6 23 -12 35 -12 9 -18 16 -13 16 6
0 18 -7 28 -14z m-576 -12 c-3 -3 -12 -4 -19 -1 -8 3 -5 6 6 6 11 1 17 -2 13
-5z m-32 -14 c3 -6 -1 -7 -9 -4 -18 7 -21 14 -7 14 6 0 13 -4 16 -10z m595 0
c0 -5 -2 -10 -4 -10 -3 0 -8 5 -11 10 -3 6 -1 10 4 10 6 0 11 -4 11 -10z m50
-14 c0 -3 -4 -8 -10 -11 -5 -3 -10 -1 -10 4 0 6 5 11 10 11 6 0 10 -2 10 -4z
m-2 -51 c-3 -3 -9 2 -12 12 -6 14 -5 15 5 6 7 -7 10 -15 7 -18z m-1 -37 c-3
-8 -6 -5 -6 6 -1 11 2 17 5 13 3 -3 4 -12 1 -19z m-17 8 c0 -3 -4 -8 -10 -11
-5 -3 -10 -1 -10 4 0 6 5 11 10 11 6 0 10 -2 10 -4z m102 -739 c-7 -8 -8 -18
-4 -22 4 -5 1 -5 -5 -1 -10 5 -10 11 -1 26 7 11 14 17 17 15 2 -3 -1 -11 -7
-18z m-527 -107 c3 -5 1 -10 -4 -10 -6 0 -11 5 -11 10 0 6 2 10 4 10 3 0 8 -4
11 -10z m489 -15 c21 -32 20 -39 -2 -17 -11 9 -17 20 -15 24 2 3 -3 9 -9 11
-8 4 -9 6 -2 6 7 1 19 -10 28 -24z m-9 -24 c3 -5 0 -13 -6 -17 -7 -4 -9 -3 -5
4 3 5 0 13 -6 15 -9 4 -10 6 -1 6 6 1 14 -3 18 -8z m55 5 c0 -3 -4 -8 -10 -11
-5 -3 -10 -1 -10 4 0 6 5 11 10 11 6 0 10 -2 10 -4z m-6 -42 c3 -8 2 -12 -4
-9 -6 3 -10 10 -10 16 0 14 7 11 14 -7z m-641 0 c-7 -3 -9 -12 -6 -20 3 -8 1
-14 -5 -14 -8 0 -9 16 -3 38 1 1 7 2 14 1 9 0 9 -2 0 -5z m37 -4 c0 -5 -4 -10
-10 -10 -5 0 -10 5 -10 10 0 6 5 10 10 10 6 0 10 -4 10 -10z m584 -18 c2 -4
-4 -8 -14 -8 -10 0 -16 4 -14 8 3 4 9 8 14 8 5 0 11 -4 14 -8z m-607 -24 c-3
-8 -6 -5 -6 6 -1 11 2 17 5 13 3 -3 4 -12 1 -19z m-652 -78 c3 -6 -1 -7 -9 -4
-18 7 -21 14 -7 14 6 0 13 -4 16 -10z m-5 -24 c0 -2 -9 -2 -20 1 -11 3 -20 9
-20 15 0 5 9 4 20 -2 11 -6 20 -12 20 -14z m-180 -156 c0 -5 -4 -10 -10 -10
-5 0 -10 5 -10 10 0 6 5 10 10 10 6 0 10 -4 10 -10z m1197 -25 c0 -8 -4 -12
-9 -9 -5 3 -6 10 -3 15 9 13 12 11 12 -6z m-776 -72 c13 -16 12 -17 -3 -4 -17
13 -22 21 -14 21 2 0 10 -8 17 -17z m-111 -59 c0 -8 -19 -13 -24 -6 -3 5 1 9
9 9 8 0 15 -2 15 -3z m14 -18 c-3 -9 -12 -16 -20 -16 -11 0 -10 4 4 18 20 22
25 21 16 -2z m-81 -82 c-1 -5 3 -14 8 -21 7 -7 5 -13 -3 -16 -10 -4 -10 -8 2
-16 12 -9 10 -10 -10 -7 -14 3 -28 5 -32 5 -5 1 -8 6 -8 12 0 6 7 9 15 6 21
-9 25 5 8 28 -13 16 -15 17 -10 3 4 -10 2 -18 -3 -18 -11 0 -14 23 -4 32 8 9
39 2 37 -8z m-605 -215 c9 -12 9 -16 -1 -16 -7 0 -14 9 -14 20 -1 11 -1 18 0
16 2 -2 8 -11 15 -20z m244 -96 c-6 -2 -9 -10 -6 -15 4 -7 2 -8 -5 -4 -13 9
-5 26 12 25 9 0 8 -2 -1 -6z m-308 -17 c21 -10 23 -15 11 -19 -8 -4 -15 -2
-15 4 0 5 -10 14 -22 19 -13 5 -18 9 -12 9 7 1 24 -5 38 -13z m-14 -27 c0 -6
-4 -7 -10 -4 -5 3 -10 11 -10 16 0 6 5 7 10 4 6 -3 10 -11 10 -16z m363 4 c-4
-10 -9 -11 -19 -2 -18 15 -18 15 5 15 11 0 17 -5 14 -13z"/>
<path d="M4373 4483 c4 -6 3 -14 -3 -18 -6 -4 -7 -12 -3 -18 7 -12 8 -15 11
-46 2 -11 6 -10 21 3 23 21 17 48 -7 38 -14 -5 -15 -3 -4 10 10 13 9 18 -5 29
-9 8 -14 9 -10 2z"/>
<path d="M3945 4330 c-4 -6 -3 -10 2 -9 4 1 10 0 13 -1 16 -6 41 -7 35 -2 -4
4 -10 7 -13 7 -4 0 -12 4 -19 8 -6 4 -15 3 -18 -3z"/>
<path d="M3955 4284 c-20 -21 -20 -22 15 -19 40 3 44 8 20 23 -15 9 -22 9 -35
-4z m29 -2 c3 -5 -1 -9 -9 -9 -8 0 -12 4 -9 9 3 4 7 8 9 8 2 0 6 -4 9 -8z"/>
<path d="M2680 4200 c-12 -7 -10 -9 7 -7 12 0 19 5 17 9 -6 10 -6 10 -24 -2z"/>
<path d="M2840 4002 c-17 -32 -18 -34 -2 -15 14 15 22 19 30 11 13 -13 33 -1
26 17 -11 29 -33 24 -54 -13z m45 -1 c-6 -5 -25 10 -25 20 0 5 6 4 14 -3 8 -7
12 -15 11 -17z"/>
<path d="M3800 3465 c0 -2 6 -8 13 -14 10 -8 14 -7 14 2 0 8 -6 14 -14 14 -7
0 -13 -1 -13 -2z"/>
<path d="M3779 3459 c0 -2 -2 -12 -4 -23 -2 -10 2 -24 8 -31 9 -10 14 -9 24 4
12 14 12 14 7 -4 -5 -19 -5 -19 6 -2 7 10 10 19 8 20 -1 1 -13 11 -25 21 -13
11 -23 17 -24 15z m27 -36 c-10 -11 -19 -7 -22 10 -2 15 0 16 12 6 8 -6 12
-14 10 -16z"/>
<path d="M3270 5003 c0 -6 8 -17 18 -24 16 -13 16 -13 2 6 -8 11 -16 22 -17
24 -2 2 -3 0 -3 -6z"/>
<path d="M3854 4996 c1 -8 5 -18 8 -22 4 -3 5 1 4 10 -1 8 -5 18 -8 22 -4 3
-5 -1 -4 -10z"/>
<path d="M3378 4958 c-5 -11 -2 -15 10 -14 9 2 18 9 20 17 3 12 2 12 -6 0 -8
-11 -10 -11 -14 0 -3 10 -6 9 -10 -3z"/>
<path d="M4040 4916 c0 -8 4 -17 9 -20 5 -4 7 3 4 14 -6 23 -13 26 -13 6z"/>
<path d="M3050 4881 c0 -7 -4 -10 -8 -7 -4 2 -14 1 -21 -4 -11 -6 -8 -11 10
-20 13 -7 21 -9 17 -5 -4 5 -3 14 4 22 6 7 8 16 4 20 -3 3 -6 1 -6 -6z"/>
<path d="M4020 4886 c0 -2 8 -10 18 -17 15 -13 16 -12 3 4 -13 16 -21 21 -21
13z"/>
<path d="M4068 4863 c6 -2 9 -10 6 -15 -4 -7 -2 -8 5 -4 13 9 5 26 -12 25 -9
0 -8 -2 1 -6z"/>
<path d="M4375 4700 c3 -5 8 -10 11 -10 2 0 4 5 4 10 0 6 -5 10 -11 10 -5 0
-7 -4 -4 -10z"/>
<path d="M2725 4231 c-3 -5 0 -13 6 -17 7 -4 9 -3 5 4 -3 5 0 13 6 15 9 4 10
6 1 6 -6 1 -14 -3 -18 -8z"/>
<path d="M2894 4229 c-7 -12 25 -63 34 -54 4 3 7 14 7 23 0 10 6 16 15 14 11
-3 12 0 4 8 -15 15 -52 21 -60 9z m36 -5 c0 -8 -19 -13 -24 -6 -3 5 1 9 9 9 8
0 15 -2 15 -3z"/>
<path d="M2870 4200 c0 -19 3 -21 12 -12 9 9 9 15 0 24 -9 9 -12 7 -12 -12z"/>
<path d="M2777 4183 c-4 -3 -7 -11 -7 -17 0 -6 5 -5 12 2 6 6 9 14 7 17 -3 3
-9 2 -12 -2z"/>
<path d="M3419 4133 c-1 -2 -2 -6 -3 -10 -1 -5 -7 -19 -14 -33 -12 -25 -12
-25 4 -3 14 20 51 22 38 2 -3 -5 -10 -6 -16 -3 -7 4 -8 2 -4 -5 4 -6 11 -9 16
-6 5 3 11 1 15 -5 4 -6 11 -8 16 -4 5 3 7 10 4 15 -4 5 -1 9 4 9 6 0 11 -4 11
-10 0 -5 5 -10 11 -10 6 0 7 5 2 13 -4 6 -8 21 -8 32 0 15 -7 19 -37 20 -21 1
-39 0 -39 -2z m68 -20 c0 -7 -7 -15 -14 -17 -8 -4 -11 -11 -7 -18 4 -8 3 -10
-2 -5 -5 5 -10 13 -10 18 -1 5 -2 14 -3 20 0 5 -5 8 -10 4 -5 -3 -12 -2 -15 3
-2 4 10 8 28 8 19 0 33 -5 33 -13z"/>
<path d="M3265 4099 c-3 -4 2 -6 10 -5 21 3 28 13 10 13 -9 0 -18 -4 -20 -8z"/>
<path d="M2653 4017 c-4 -6 -1 -7 7 -2 10 6 12 4 7 -8 -3 -8 0 -17 6 -20 7 -3
12 5 12 18 0 22 -21 30 -32 12z"/>
<path d="M2757 3837 c4 -6 0 -8 -8 -5 -9 4 -14 -2 -15 -18 l-2 -24 19 23 c19
21 19 21 17 2 -2 -11 -12 -25 -23 -32 -19 -11 -19 -12 3 -10 12 1 23 4 23 7 7
34 4 67 -7 67 -7 0 -10 -5 -7 -10z"/>
<path d="M2790 3809 c0 -5 5 -7 10 -4 6 3 10 8 10 11 0 2 -4 4 -10 4 -5 0 -10
-5 -10 -11z"/>
<path d="M4458 3752 c-11 -15 -11 -15 2 -6 8 6 23 10 33 8 11 -1 16 0 13 4
-13 12 -36 10 -48 -6z"/>
<path d="M2866 3742 c-3 -5 1 -9 9 -9 8 0 12 4 9 9 -3 4 -7 8 -9 8 -2 0 -6 -4
-9 -8z"/>
<path d="M4497 3659 c7 -7 15 -10 18 -7 3 3 -2 9 -12 12 -14 6 -15 5 -6 -5z"/>
<path d="M3166 3643 c-8 -20 9 -40 19 -22 6 8 4 10 -5 4 -9 -5 -10 -2 -5 14 8
25 0 29 -9 4z"/>
<path d="M3332 3651 c-11 -6 -10 -10 0 -19 11 -8 14 -7 14 9 0 10 0 19 -1 19
0 0 -6 -4 -13 -9z"/>
<path d="M3446 3645 c-11 -8 -15 -15 -9 -15 6 0 16 7 23 15 16 19 11 19 -14 0z"/>
<path d="M3537 3653 c-10 -9 -9 -23 1 -23 5 0 9 7 9 15 0 17 -1 18 -10 8z"/>
<path d="M3630 3656 c0 -2 8 -10 18 -17 15 -13 16 -12 3 4 -13 16 -21 21 -21
13z"/>
<path d="M3070 3640 c-12 -7 -10 -9 7 -7 12 0 19 5 17 9 -6 10 -6 10 -24 -2z"/>
<path d="M3115 3641 c-3 -5 0 -13 6 -17 7 -4 9 -3 5 4 -3 5 0 13 6 15 9 4 10
6 1 6 -6 1 -14 -3 -18 -8z"/>
<path d="M3198 3643 c7 -3 16 -2 19 1 4 3 -2 6 -13 5 -11 0 -14 -3 -6 -6z"/>
<path d="M4450 3637 c0 -8 3 -17 7 -20 8 -8 33 12 33 26 0 6 -7 2 -16 -9 -13
-16 -15 -16 -10 -1 3 9 1 17 -4 17 -6 0 -10 -6 -10 -13z"/>
<path d="M2995 3630 c-4 -6 1 -7 11 -3 13 5 15 3 9 -7 -5 -9 -4 -11 4 -6 6 4
9 12 6 17 -8 12 -22 12 -30 -1z"/>
<path d="M3230 3630 c0 -5 5 -10 11 -10 5 0 7 5 4 10 -3 6 -8 10 -11 10 -2 0
-4 -4 -4 -10z"/>
<path d="M3575 3629 c-4 -6 -5 -12 -2 -15 2 -3 7 2 10 11 7 17 1 20 -8 4z"/>
<path d="M4499 3623 c-1 -5 -1 -11 0 -15 0 -5 -6 -8 -14 -8 -18 0 -20 -16 -3
-26 6 -4 8 -3 5 3 -4 6 0 14 9 17 8 3 13 10 10 15 -4 5 0 12 6 14 10 4 10 6 1
6 -7 1 -14 -2 -14 -6z"/>
<path d="M3080 3611 c0 -10 19 -25 25 -20 1 2 -3 10 -11 17 -8 7 -14 8 -14 3z"/>
<path d="M3316 3607 c3 -8 11 -14 19 -14 20 0 19 4 -5 17 -15 8 -18 8 -14 -3z"/>
<path d="M3027 3604 c-4 -4 -7 -12 -7 -18 0 -6 5 -4 10 4 9 13 11 13 21 0 9
-12 10 -12 7 -1 -5 17 -21 25 -31 15z"/>
<path d="M3146 3595 c10 -8 23 -15 28 -15 6 0 1 7 -10 15 -10 8 -23 15 -28 15
-6 0 -1 -7 10 -15z"/>
<path d="M3190 3598 c0 -11 12 -10 30 2 12 7 10 9 -8 7 -12 0 -22 -5 -22 -9z"/>
<path d="M3236 3595 c-11 -8 -15 -15 -9 -15 6 0 16 7 23 15 16 19 11 19 -14 0z"/>
<path d="M3515 3600 c3 -5 8 -10 11 -10 2 0 4 5 4 10 0 6 -5 10 -11 10 -5 0
-7 -4 -4 -10z"/>
<path d="M3610 3600 c0 -5 5 -10 11 -10 5 0 7 5 4 10 -3 6 -8 10 -11 10 -2 0
-4 -4 -4 -10z"/>
<path d="M3293 3585 c0 -8 4 -12 9 -9 5 3 6 10 3 15 -9 13 -12 11 -12 -6z"/>
<path d="M3120 3580 c-9 -6 -10 -10 -3 -10 6 0 15 5 18 10 8 12 4 12 -15 0z"/>
<path d="M3415 3567 c-15 -31 -8 -52 21 -66 19 -8 31 -8 52 3 15 7 48 12 74
11 39 -2 48 0 54 17 6 19 29 20 29 0 0 -5 3 -14 8 -18 4 -4 7 -2 7 5 0 7 9 3
21 -10 11 -13 17 -18 13 -10 -5 10 -3 13 9 8 17 -6 34 10 33 32 -1 8 -9 15
-18 17 -10 1 -16 -1 -15 -4 2 -7 -8 -13 -20 -11 -5 1 -14 2 -20 3 -7 0 -12 5
-12 10 1 15 -23 24 -53 21 -19 -3 -26 0 -22 7 4 7 3 8 -4 4 -7 -4 -12 -14 -12
-22 0 -9 5 -12 12 -8 7 5 8 3 3 -6 -5 -9 -1 -11 16 -6 13 3 18 3 11 0 -6 -3
-10 -9 -8 -12 2 -4 -11 -8 -29 -8 -19 0 -32 3 -29 7 2 5 12 5 21 2 13 -5 13
-3 -2 20 -19 29 -27 34 -24 15 3 -26 -1 -36 -17 -42 -14 -5 -15 -4 -5 8 12 15
6 16 -52 7 -4 0 -3 -11 3 -23 10 -21 10 -21 -3 -5 -16 19 -32 24 -21 5 5 -7 3
-8 -6 -3 -10 6 -9 11 5 22 17 11 14 17 -6 15 -4 -1 -5 8 -2 18 7 27 0 25 -12
-3z m209 -9 c-3 -4 -11 -5 -19 -1 -21 7 -19 12 4 10 11 0 18 -5 15 -9z m101
-25 c-2 -10 -4 -19 -4 -21 -1 -2 -6 0 -11 3 -8 5 -7 11 1 21 15 18 18 18 14
-3z m-37 -18 c-3 -3 -9 2 -12 12 -6 14 -5 15 5 6 7 -7 10 -15 7 -18z m-198 5
c0 -5 -2 -10 -4 -10 -3 0 -8 5 -11 10 -3 6 -1 10 4 10 6 0 11 -4 11 -10z"/>
<path d="M3444 3579 c-3 -6 -1 -16 6 -22 10 -9 14 -9 17 1 4 10 8 10 20 1 8
-7 13 -8 12 -3 -4 23 2 26 17 8 15 -18 15 -18 5 3 -10 20 -32 25 -47 10 -11
-11 -26 -8 -19 3 3 6 4 10 1 10 -3 0 -8 -5 -12 -11z"/>
<path d="M4509 3578 c-1 -7 -2 -33 -3 -57 -1 -34 -6 -46 -21 -52 -19 -7 -18
-10 7 -13 15 -1 23 -26 8 -26 -6 0 -9 -4 -5 -9 3 -5 1 -12 -4 -15 -5 -4 -12
-2 -15 3 -4 5 -2 12 4 16 6 4 7 11 4 17 -4 6 -10 5 -15 -3 -6 -10 -8 -6 -6 10
2 14 9 27 15 29 18 6 14 18 -6 18 -15 0 -18 -8 -18 -43 0 -24 4 -43 9 -43 5 0
4 -6 -2 -14 -10 -11 -9 -14 3 -12 9 1 18 5 22 8 3 4 11 5 18 2 8 -3 12 24 12
96 0 55 -1 100 -3 100 -1 0 -3 -6 -4 -12z"/>
<path d="M4472 3540 c-15 -25 -15 -30 2 -30 8 0 14 10 14 25 0 30 0 30 -16 5z"/>
<path d="M3353 3529 c-1 -12 4 -18 15 -16 28 4 31 32 4 34 -11 1 -18 -6 -19
-18z"/>
<path d="M3227 3449 c4 -13 8 -18 11 -10 2 7 -1 18 -6 23 -8 8 -9 4 -5 -13z"/>
<path d="M3176 3431 c-4 -5 -1 -13 5 -17 8 -4 9 -3 5 4 -4 7 -3 12 3 12 5 0
12 -5 14 -10 3 -6 4 -5 3 2 -3 16 -23 22 -30 9z"/>
<path d="M3221 3413 c-1 -17 16 -25 25 -12 4 7 3 9 -4 5 -5 -3 -13 0 -15 6 -4
9 -6 10 -6 1z"/>
<path d="M3103 3382 c-36 -4 -40 -10 -20 -31 10 -11 9 -12 -1 -6 -8 4 -13 2
-11 -6 1 -8 1 -24 0 -37 -1 -19 -5 -22 -21 -17 -13 4 -20 2 -20 -7 0 -8 -3 -9
-8 -3 -9 12 -32 18 -33 8 0 -5 -1 -26 -2 -48 -2 -39 -3 -40 -42 -43 -46 -4
-55 -14 -49 -58 4 -39 -11 -53 -34 -30 -14 14 -14 17 3 36 22 24 14 27 -10 4
-9 -9 -19 -13 -23 -9 -10 10 38 46 51 38 6 -3 7 -1 3 5 -5 9 -13 9 -27 2 -11
-6 -23 -9 -28 -6 -4 3 -7 -9 -6 -26 1 -18 7 -34 14 -36 6 -2 11 -8 11 -14 0
-5 -9 -6 -22 -3 -16 6 -20 4 -15 -7 3 -9 -1 -15 -9 -15 -8 0 -14 3 -14 6 0 4
-13 7 -29 7 -27 1 -29 -1 -27 -30 4 -45 5 -46 21 -40 13 5 13 9 0 34 -13 26
-13 28 3 26 11 -2 16 -10 14 -25 -2 -11 2 -21 7 -21 6 0 11 7 11 15 0 26 15
16 16 -10 2 -21 -1 -25 -18 -19 -12 4 -18 2 -15 -4 4 -5 -4 -8 -18 -6 -14 1
-25 -2 -25 -8 0 -5 -15 -8 -33 -7 -40 4 -66 -9 -46 -22 8 -5 9 -9 4 -9 -6 0
-11 -9 -11 -19 0 -11 4 -17 8 -15 4 3 5 -2 2 -10 -7 -17 -11 -18 -61 -18 -31
0 -32 -1 -33 -46 -1 -92 -8 -144 -18 -154 -7 -7 -10 -3 -8 16 2 15 -1 29 -7
33 -6 4 -3 12 8 20 14 9 15 13 4 13 -12 0 -12 2 1 10 8 5 10 10 4 10 -6 0 -17
-7 -24 -15 -7 -8 -17 -15 -22 -15 -6 0 -5 7 2 15 7 9 10 18 6 22 -3 3 -6 1 -6
-5 0 -6 -8 -9 -17 -6 -11 4 -14 2 -8 -3 6 -4 10 -15 10 -23 0 -8 5 -20 13 -25
10 -8 9 -15 -7 -32 -13 -13 -17 -24 -11 -28 6 -4 7 -12 3 -18 -4 -7 -8 -21 -9
-32 -3 -51 -4 -56 -16 -49 -7 4 -5 -1 4 -11 16 -17 16 -19 0 -31 -16 -12 -16
-13 2 -14 25 0 16 -9 -22 -19 -26 -8 -30 -7 -24 7 5 15 4 15 -11 3 -13 -10
-17 -30 -17 -78 0 -40 -4 -62 -10 -58 -5 3 -10 1 -10 -4 0 -6 5 -11 10 -11 6
0 10 -7 10 -15 0 -16 -10 -19 -26 -7 -5 4 -1 -1 8 -10 17 -16 17 -17 1 -20
-10 -2 -24 3 -31 12 -8 8 -11 10 -8 3 4 -6 -3 -14 -14 -18 -21 -7 -28 -25 -9
-25 8 0 9 -4 0 -13 -15 -19 -1 -30 18 -14 14 11 14 10 2 -5 -7 -10 -17 -16
-21 -13 -4 2 -8 -19 -9 -48 -1 -85 -2 -87 -22 -76 -11 6 -20 5 -24 -1 -10 -16
-23 -12 -27 8 -2 9 -4 -30 -6 -88 -1 -60 -6 -106 -12 -108 -5 -2 -10 -8 -10
-13 0 -6 5 -7 12 -3 7 4 8 3 4 -5 -4 -6 -11 -9 -16 -6 -7 4 -20 -16 -20 -31 0
-7 25 1 33 11 5 6 7 4 4 -5 -2 -8 -10 -14 -17 -12 -7 2 -9 -5 -5 -20 5 -17 4
-19 -4 -9 -8 12 -12 12 -25 2 -11 -9 -16 -10 -16 -2 0 6 6 11 13 11 8 0 7 4
-3 10 -10 6 -11 10 -2 10 6 0 12 5 12 11 0 5 -4 8 -9 4 -5 -3 -13 0 -17 6 -4
7 -3 9 2 6 6 -3 11 3 11 14 1 11 -3 19 -10 16 -7 -2 -12 -37 -13 -93 -2 -49
-4 -91 -4 -94 -1 -3 -2 -14 -1 -25 2 -19 1 -19 -16 2 -17 21 -46 26 -58 10 -3
-4 -2 -5 2 -2 8 6 33 -14 33 -28 0 -7 -4 -7 -12 1 -21 21 -24 13 -25 -68 0
-44 -6 -86 -12 -94 -6 -7 -8 -16 -4 -20 9 -9 13 -66 5 -66 -3 0 -15 8 -26 18
-20 16 -20 16 -7 0 12 -16 11 -18 -13 -18 -26 0 -26 0 -10 25 15 23 15 25 1
19 -9 -3 -16 -9 -15 -12 0 -4 0 -9 -2 -12 -1 -3 -3 -16 -6 -29 -4 -21 -3 -22
13 -10 14 11 14 9 -2 -9 -16 -20 -17 -25 -5 -32 9 -6 10 -10 3 -10 -6 0 -13
-12 -15 -28 -2 -15 -8 -26 -14 -25 -6 1 -11 -5 -11 -12 0 -11 4 -12 14 -4 10
9 13 4 13 -25 0 -35 -1 -35 -37 -33 -30 2 -38 -2 -41 -17 -3 -15 0 -17 14 -12
15 5 14 2 -4 -12 -18 -14 -20 -20 -10 -30 9 -9 9 -15 3 -20 -6 -4 -10 -14 -10
-22 1 -8 -4 -21 -9 -29 -8 -11 -8 -13 2 -7 16 10 9 -38 -9 -60 -10 -13 -6 -18
12 -16 4 1 4 -9 1 -21 -5 -17 -7 -18 -10 -5 -3 17 -32 14 -32 -4 0 -5 4 -7 9
-4 5 3 11 0 14 -7 3 -9 -2 -13 -16 -12 -40 3 -47 -5 -47 -55 0 -51 -7 -58 -51
-55 -15 1 -26 -4 -26 -11 0 -7 4 -11 9 -8 4 3 8 0 8 -5 0 -6 -4 -11 -9 -11 -6
0 -9 -9 -8 -20 1 -11 5 -20 10 -20 5 0 6 8 3 18 -5 14 -4 14 9 -2 8 -11 15
-15 15 -10 0 6 -6 16 -12 24 -11 12 -10 12 4 2 11 -9 18 -10 23 -2 4 6 1 9 -6
8 -6 -2 -14 4 -16 12 -4 12 -3 12 5 2 7 -11 11 -10 16 4 3 9 10 14 14 10 11
-12 9 -66 -2 -66 -6 0 -4 -5 4 -10 8 -5 10 -10 5 -10 -6 0 -16 5 -22 11 -7 7
-13 7 -17 0 -4 -5 -13 -8 -21 -4 -12 4 -15 -5 -16 -38 -1 -24 -1 -47 0 -51 0
-4 -10 -15 -24 -24 -14 -9 -22 -21 -19 -26 4 -6 -2 -8 -17 -3 l-24 7 25 -18
c14 -10 32 -17 41 -16 9 1 16 -4 16 -11 0 -18 -46 -14 -59 5 -7 10 -8 9 -4 -4
6 -20 -10 -35 -17 -16 -2 7 -5 -9 -5 -37 -2 -113 -5 -156 -13 -160 -4 -3 -6
-15 -4 -27 3 -11 1 -17 -3 -14 -4 4 -7 13 -7 19 0 7 -7 12 -15 12 -8 0 -20 11
-27 24 l-12 25 1 -31 c1 -16 -2 -35 -6 -42 -4 -6 -3 -11 3 -11 6 0 8 -9 3 -22
-4 -13 -7 -38 -7 -55 0 -18 -4 -33 -10 -33 -5 0 -3 -5 5 -10 12 -8 12 -10 -5
-10 -18 -1 -17 -2 4 -11 13 -5 38 -11 54 -12 22 -2 31 -8 33 -24 3 -16 -1 -20
-15 -16 -10 3 -22 0 -25 -5 -7 -11 23 -46 32 -37 3 3 -3 12 -14 20 -18 15 -18
16 6 13 22 -3 25 1 24 25 l-1 28 81 -2 c45 -1 87 -6 95 -13 11 -8 13 -8 7 2
-5 8 0 12 13 12 12 0 21 -5 21 -12 0 -6 7 -3 15 8 8 10 14 15 15 9 0 -6 47 -9
126 -7 92 2 130 0 142 -10 13 -11 14 -11 8 0 -6 10 -3 13 10 10 11 -2 18 -10
16 -17 -1 -7 2 -10 8 -6 6 3 8 11 5 16 -4 5 3 9 13 9 11 0 22 6 24 13 2 6 3
184 2 394 -1 369 -1 382 17 372 17 -8 18 -6 14 23 -4 29 -4 30 4 8 5 -14 9
-21 10 -16 1 5 7 3 15 -3 10 -8 16 -9 21 -1 3 5 1 10 -5 10 -6 0 -8 4 -5 10 3
5 -1 10 -9 10 -9 0 -16 4 -16 9 0 5 10 7 23 4 12 -3 18 -1 12 4 -27 22 -11 39
32 34 6 -1 14 3 18 8 3 6 12 8 20 5 9 -4 13 1 12 15 -1 12 -5 21 -9 21 -4 0
-8 5 -8 11 0 5 6 7 13 3 10 -6 10 -4 0 7 -15 16 -17 33 -3 24 6 -3 10 1 10 9
0 9 5 16 11 16 5 0 7 -6 4 -12 -4 -7 3 -2 14 11 12 13 21 28 20 35 0 7 -2 6
-6 -2 -2 -6 -9 -10 -14 -7 -5 4 -6 -1 -3 -10 5 -11 2 -14 -9 -9 -10 3 -15 16
-14 32 2 24 7 27 37 27 24 0 37 6 42 18 5 10 13 16 20 12 7 -4 6 -1 -3 7 -21
17 -23 29 -7 39 10 7 10 9 0 9 -7 0 -10 5 -7 10 7 11 86 14 84 3 -1 -5 0 -11
1 -15 1 -5 3 -23 4 -40 1 -21 7 -32 15 -30 8 2 11 -5 7 -20 -3 -13 -3 -17 0
-10 3 6 10 9 16 6 6 -4 5 2 -1 15 -10 17 -9 21 4 21 10 0 13 -5 9 -12 -4 -7
-3 -8 4 -4 7 4 12 2 12 -5 0 -7 3 -10 6 -6 3 3 -3 18 -13 34 -19 26 -21 59 -4
49 4 -3 8 1 8 8 0 9 -11 13 -28 12 -32 -2 -39 9 -39 65 0 30 4 39 18 40 9 1
28 2 42 2 25 2 35 26 15 39 -6 5 -6 8 2 8 7 0 10 10 7 26 -3 15 -1 23 5 20 5
-3 12 0 14 6 4 10 6 10 6 -1 1 -10 7 -10 27 4 15 9 23 12 20 6 -4 -6 -2 -11 3
-11 6 0 11 16 11 35 0 26 -4 35 -17 36 -14 0 -14 2 3 9 12 5 25 14 30 21 4 8
3 10 -4 5 -7 -4 -12 -2 -12 3 0 6 6 11 13 11 7 0 8 3 2 8 -13 9 -14 192 -2
192 6 0 5 5 0 13 -14 17 -9 72 8 93 13 16 12 17 -5 11 -15 -6 -17 -5 -7 7 9
11 9 15 -1 19 -10 4 -10 6 1 6 11 1 11 4 0 19 -13 15 -12 16 4 3 14 -11 21
-11 29 -3 9 9 8 12 -5 12 -9 0 -17 5 -17 10 0 7 6 7 20 0 22 -12 27 -30 8 -30
-18 0 0 -13 23 -17 17 -3 18 0 9 17 -6 11 -7 20 -2 20 4 0 5 27 2 60 -4 37 -2
61 5 64 5 2 -2 9 -17 15 -16 6 -28 13 -28 16 0 2 11 0 25 -5 16 -6 25 -6 25 0
0 6 -6 10 -14 10 -8 0 -17 4 -20 9 -3 5 1 8 10 7 12 -1 17 10 19 42 2 34 0 40
-10 32 -10 -8 -15 -8 -21 1 -4 7 -3 9 4 5 24 -15 27 7 33 261 0 38 2 41 15 28
15 -14 42 -10 57 9 5 6 6 -3 3 -21 -3 -20 -1 -33 5 -33 6 0 8 -4 4 -10 -8 -12
-35 -1 -32 13 1 7 7 15 12 19 6 5 6 8 -2 8 -6 0 -14 -4 -18 -10 -3 -5 -12 -7
-20 -3 -8 3 -15 0 -15 -7 0 -6 5 -8 10 -5 6 3 10 2 10 -4 0 -5 -4 -13 -10 -16
-5 -3 -10 -12 -10 -18 0 -8 3 -7 9 2 5 7 11 9 13 5 3 -5 3 -3 2 4 -4 16 8 15
30 -1 17 -13 19 -35 19 -303 l0 -289 42 -1 42 0 -1 45 -1 45 45 4 c25 2 49 8
54 13 6 6 6 9 -1 9 -13 0 -12 42 2 52 6 5 5 8 -3 8 -7 0 -11 3 -8 8 2 4 21 7
41 6 29 -2 38 2 45 19 4 12 4 29 -1 38 -4 9 -6 19 -3 22 3 3 6 94 7 201 0 164
2 194 14 184 11 -8 12 -7 7 6 -3 9 -10 16 -15 16 -5 0 -8 18 -7 41 1 32 6 43
24 51 13 6 22 14 20 17 -6 9 16 37 34 44 12 4 12 6 -2 6 -9 1 -25 -12 -34 -29
-18 -29 -44 -48 -44 -31 0 5 6 12 13 14 10 4 10 6 0 6 -16 1 -17 31 -2 31 5 0
7 -4 4 -10 -3 -5 -3 -10 2 -10 4 0 19 16 32 35 13 20 28 32 35 28 7 -4 6 -1
-1 9 -7 8 -10 18 -6 22 4 4 0 4 -8 1 -10 -4 -16 0 -16 10 0 9 6 14 14 11 8 -3
11 -2 8 3 -3 5 -1 12 5 16 7 4 7 12 0 25 -7 12 -6 20 0 22 6 2 1 9 -11 16 -12
8 -18 9 -15 3 5 -7 0 -9 -11 -5 -15 5 -16 4 -3 -6 13 -10 12 -11 -3 -6 -12 4
-16 2 -11 -6 5 -7 3 -8 -6 -3 -8 5 -11 4 -6 -3 4 -6 14 -8 24 -5 15 6 15 5 3
-10 -7 -9 -18 -14 -25 -10 -6 4 -5 -1 3 -10 7 -9 9 -17 5 -17 -5 0 -9 -18 -9
-40 0 -22 3 -40 7 -40 5 0 8 6 8 14 0 12 20 26 36 26 3 0 -4 -13 -16 -30 -40
-56 -48 -33 -46 131 0 82 3 144 4 139 2 -6 8 -8 12 -5 5 3 7 12 4 20 -4 8 -10
13 -14 10 -11 -7 -7 39 5 47 5 4 15 2 22 -4 16 -13 17 4 2 19 -6 6 -19 9 -28
6 -12 -4 -11 -2 3 9 13 10 16 20 11 29 -7 11 -5 11 10 -1 17 -14 18 -13 12 3
-4 10 -7 21 -7 23 0 3 -4 2 -10 -1 -16 -10 -12 5 7 23 15 15 16 15 11 1 -4 -9
0 -26 8 -37 13 -19 12 -21 -8 -28 l-22 -7 22 -18 c13 -10 23 -20 22 -23 -1
-18 2 -19 9 -1 5 11 5 27 1 34 -5 8 -4 25 1 38 9 24 3 53 -12 53 -5 0 -9 5 -9
11 0 5 5 7 12 3 7 -5 9 0 6 14 -3 12 -1 23 6 26 7 3 6 5 -3 5 -11 1 -11 4 -1
16 9 11 9 15 1 15 -9 0 -9 5 0 22 10 18 9 20 -5 15 -9 -4 -16 -3 -16 1 0 7
-61 9 -117 4z m107 -46 c-7 -7 -13 -7 -20 0 -6 6 -3 10 10 10 13 0 16 -4 10
-10z m3 -63 c-6 -16 -23 -17 -23 -2 0 5 -5 7 -12 3 -6 -4 -8 -3 -5 2 9 15 46
12 40 -3z m-28 -23 c3 -6 -1 -7 -9 -4 -18 7 -21 14 -7 14 6 0 13 -4 16 -10z
m55 -24 c0 -3 -4 -8 -10 -11 -5 -3 -10 -1 -10 4 0 6 5 11 10 11 6 0 10 -2 10
-4z m-6 -72 c3 -8 2 -12 -4 -9 -6 3 -10 10 -10 16 0 14 7 11 14 -7z m-7 -236
c0 -7 2 -18 4 -24 2 -7 0 -12 -5 -12 -14 0 -25 -23 -21 -44 2 -10 0 -16 -5
-13 -4 3 -11 -1 -14 -7 -3 -7 -3 -2 0 11 3 13 7 29 8 35 1 6 6 18 11 26 5 8
10 18 11 23 3 14 4 17 7 17 2 0 4 -6 4 -12z m-706 -152 c-8 -9 -8 -16 -2 -20
12 -8 3 -36 -11 -36 -6 0 -6 6 1 14 9 10 9 16 1 21 -8 5 -8 11 1 21 6 8 14 14
16 14 3 0 0 -6 -6 -14z m349 -162 c0 -8 -19 -13 -24 -6 -3 5 1 9 9 9 8 0 15
-2 15 -3z m57 -19 c0 -8 -4 -12 -9 -9 -5 3 -6 10 -3 15 9 13 12 11 12 -6z
m-497 -119 c0 -3 -4 -8 -10 -11 -5 -3 -10 -1 -10 4 0 6 5 11 10 11 6 0 10 -2
10 -4z m335 -35 c3 -5 2 -12 -3 -15 -5 -3 -9 1 -9 9 0 17 3 19 12 6z m2 -140
c1 -11 -5 -25 -15 -32 -15 -12 -16 -12 -5 2 7 8 11 26 8 39 -2 12 -1 20 2 16
4 -4 8 -15 10 -25z m-382 -3 c5 4 5 1 1 -6 -6 -10 -11 -10 -22 -1 -8 6 -14 14
-14 16 0 3 6 0 13 -6 8 -6 18 -7 22 -3z m382 -53 c0 -8 -4 -12 -9 -9 -5 3 -6
10 -3 15 9 13 12 11 12 -6z m3 -54 c0 -6 -4 -12 -8 -15 -5 -3 -9 1 -9 9 0 8 4
15 9 15 4 0 8 -4 8 -9z m-9 -54 c-10 -9 -11 -8 -5 6 3 10 9 15 12 12 3 -3 0
-11 -7 -18z m19 -12 c-7 -8 -20 -15 -29 -15 -11 0 -8 5 9 14 33 19 35 19 20 1z
m-485 -33 c5 -15 4 -15 -12 0 -16 17 -18 16 -28 -9 -10 -23 -12 -25 -18 -10
-4 10 -3 16 2 13 5 -3 11 3 14 14 6 23 32 18 42 -8z m455 4 c0 -3 -4 -8 -10
-11 -5 -3 -10 -1 -10 4 0 6 5 11 10 11 6 0 10 -2 10 -4z m30 -6 c0 -5 -2 -10
-4 -10 -3 0 -8 5 -11 10 -3 6 -1 10 4 10 6 0 11 -4 11 -10z m-488 -28 c-7 -2
-10 -7 -8 -11 3 -4 -4 -7 -15 -7 -18 0 -18 2 -5 12 9 6 13 14 9 18 -4 4 1 4
12 0 11 -5 14 -9 7 -12z m-192 -331 c0 -5 7 -17 16 -26 9 -9 13 -19 10 -23 -4
-3 -11 -1 -15 7 -6 10 -10 9 -15 -4 -3 -10 -11 -13 -18 -9 -7 4 -9 3 -5 -1 10
-12 38 -15 32 -4 -4 5 1 6 9 3 12 -5 13 -9 3 -19 -7 -7 -14 -10 -17 -6 -3 3
-12 6 -20 6 -10 0 -15 10 -15 27 -1 20 2 24 11 17 17 -14 29 8 14 26 -9 11 -9
15 -1 15 6 0 11 -4 11 -9z m584 -103 c-3 -4 -11 -5 -19 -1 -21 7 -19 12 4 10
11 0 18 -5 15 -9z m24 -25 c-2 -9 -14 -18 -28 -20 -18 -2 -21 -1 -10 6 8 5 18
7 24 4 5 -4 7 1 3 10 -3 10 -2 17 4 17 6 0 9 -7 7 -17z m-108 -273 c-5 -10 -5
-22 1 -28 5 -7 6 -10 3 -7 -4 3 -12 -3 -19 -11 -11 -15 -12 -15 -12 0 0 9 5
16 11 16 6 0 4 5 -4 10 -10 6 -11 10 -2 10 6 0 12 5 12 11 0 5 -4 8 -9 4 -5
-3 -12 -2 -15 3 -2 4 6 8 19 8 19 0 22 -3 15 -16z m-678 -122 c-7 -7 -12 -8
-12 -2 0 14 12 26 19 19 2 -3 -1 -11 -7 -17z m432 -50 c-3 -4 1 -8 8 -9 10 0
10 -2 1 -6 -9 -3 -8 -11 4 -29 14 -22 14 -24 -1 -18 -9 3 -16 1 -16 -4 0 -6
-9 -10 -20 -9 -11 1 -20 5 -20 10 0 5 6 7 13 4 8 -3 14 1 14 8 0 7 -6 11 -14
8 -10 -4 -13 3 -11 24 1 23 7 29 24 29 13 0 20 -4 18 -8z m-109 -109 c-3 -12
-7 -24 -10 -27 -3 -3 -3 5 -1 19 6 30 5 29 10 29 3 0 3 -10 1 -21z m-544 -387
c-9 -3 -10 -7 -3 -11 7 -4 4 -11 -9 -19 -17 -11 -20 -10 -17 5 3 20 30 45 38
36 3 -3 -1 -8 -9 -11z m-111 -326 c0 -2 -7 -7 -16 -10 -8 -3 -12 -2 -9 4 6 10
25 14 25 6z"/>
<path d="M2326 1143 c-11 -11 -6 -33 7 -30 6 1 11 -4 9 -11 -1 -8 2 -11 8 -7
8 5 8 11 1 19 -6 7 -8 15 -5 18 3 3 1 9 -4 12 -5 3 -12 3 -16 -1z"/>
<path d="M2935 3260 c3 -5 8 -10 11 -10 2 0 4 5 4 10 0 6 -5 10 -11 10 -5 0
-7 -4 -4 -10z"/>
<path d="M2874 3129 c-3 -6 -2 -15 3 -20 5 -5 9 -1 9 11 0 23 -2 24 -12 9z"/>
<path d="M3176 3115 c-3 -8 -1 -15 4 -15 6 0 10 -6 10 -13 0 -7 9 -18 20 -25
11 -7 20 -18 19 -25 0 -9 -2 -9 -6 1 -2 6 -9 9 -15 6 -5 -3 -2 -15 9 -27 10
-11 12 -17 6 -13 -7 4 -13 2 -13 -3 0 -6 7 -11 16 -11 11 0 14 5 10 16 -4 9
-1 23 5 30 9 11 8 14 -1 14 -7 0 -10 7 -6 16 3 8 2 12 -4 9 -6 -3 -10 -1 -10
5 0 6 -5 8 -12 4 -6 -4 -8 -3 -5 4 4 5 17 8 30 5 22 -5 22 -5 2 10 -15 12 -23
13 -34 4 -11 -9 -13 -9 -8 0 4 6 3 14 -2 17 -5 3 -11 -1 -15 -9z"/>
<path d="M3183 3048 c-4 -7 -8 -36 -8 -64 -1 -48 0 -51 17 -40 10 6 18 15 18
21 0 5 4 4 9 -4 5 -7 14 -10 21 -6 8 5 4 11 -12 19 -12 6 -23 18 -23 26 0 8
-4 21 -9 29 -5 8 -3 16 5 22 9 6 10 9 2 9 -6 0 -15 -6 -20 -12z m16 -62 c8
-10 8 -16 -2 -24 -10 -9 -13 -6 -13 13 0 29 0 29 15 11z"/>
<path d="M3225 2721 c3 -5 1 -12 -5 -16 -13 -8 -13 -42 -1 -50 5 -3 13 0 17 6
4 8 3 9 -4 5 -8 -5 -12 1 -12 14 0 12 4 19 8 16 4 -2 9 4 9 15 1 10 -3 19 -8
19 -6 0 -8 -4 -4 -9z"/>
<path d="M4555 2721 c-3 -5 -2 -12 3 -15 5 -3 9 1 9 9 0 17 -3 19 -12 6z"/>
<path d="M3180 2670 c-6 -11 -8 -20 -6 -20 3 0 10 9 16 20 6 11 8 20 6 20 -3
0 -10 -9 -16 -20z"/>
<path d="M4547 2673 c3 -7 6 -13 8 -13 1 0 7 6 13 13 8 10 6 13 -7 13 -11 0
-17 -6 -14 -13z"/>
<path d="M4594 2682 c3 -5 0 -13 -6 -15 -9 -4 -10 -6 -1 -6 17 -1 25 16 12 25
-7 4 -9 3 -5 -4z"/>
<path d="M3190 2640 c0 -5 5 -10 10 -10 6 0 10 5 10 10 0 6 -4 10 -10 10 -5 0
-10 -4 -10 -10z"/>
<path d="M4570 2638 c0 -4 4 -8 9 -8 6 0 12 4 15 8 3 5 -1 9 -9 9 -8 0 -15 -4
-15 -9z"/>
<path d="M3216 2622 c-2 -4 -1 -14 3 -21 6 -9 11 -10 15 -2 4 6 2 11 -4 11 -6
0 -8 5 -5 10 3 6 4 10 1 10 -3 0 -7 -4 -10 -8z"/>
<path d="M4565 2610 c-4 -6 -10 -8 -15 -5 -4 3 -10 -1 -13 -9 -4 -9 0 -12 13
-9 10 3 21 11 24 19 6 16 0 19 -9 4z"/>
<path d="M2435 2599 c-4 -6 -5 -12 -2 -15 2 -3 7 2 10 11 7 17 1 20 -8 4z"/>
<path d="M2410 2566 c29 -17 40 -20 40 -8 0 5 -6 9 -12 9 -7 0 -22 4 -33 7
-13 5 -12 2 5 -8z"/>
<path d="M4557 2560 c3 -11 7 -20 9 -20 2 0 4 9 4 20 0 11 -4 20 -9 20 -5 0
-7 -9 -4 -20z"/>
<path d="M3202 2556 c7 -8 15 -12 17 -11 5 6 -10 25 -20 25 -5 0 -4 -6 3 -14z"/>
<path d="M4530 2561 c0 -6 4 -13 10 -16 6 -3 7 1 4 9 -7 18 -14 21 -14 7z"/>
<path d="M2395 2540 c-3 -6 1 -7 9 -4 18 7 21 14 7 14 -6 0 -13 -4 -16 -10z"/>
<path d="M3216 2518 c3 -5 10 -6 15 -3 13 9 11 12 -6 12 -8 0 -12 -4 -9 -9z"/>
<path d="M4540 2526 c0 -2 7 -6 15 -10 8 -3 15 -1 15 4 0 6 -7 10 -15 10 -8 0
-15 -2 -15 -4z"/>
<path d="M4235 2480 c3 -5 8 -10 11 -10 2 0 4 5 4 10 0 6 -5 10 -11 10 -5 0
-7 -4 -4 -10z"/>
<path d="M4190 2476 c0 -2 8 -10 18 -17 15 -13 16 -12 3 4 -13 16 -21 21 -21
13z"/>
<path d="M2139 2408 c-7 -12 -21 -30 -33 -39 -17 -14 -19 -20 -8 -30 10 -11
12 -10 13 2 1 7 1 17 0 22 0 4 4 7 10 7 6 0 9 -9 6 -20 -3 -10 0 -21 7 -23 6
-2 -11 -4 -39 -5 -121 -4 -131 -6 -132 -25 -1 -11 3 -15 10 -10 8 4 8 2 -1 -9
-7 -9 -12 -20 -11 -24 5 -28 -4 -34 -44 -34 -32 0 -44 -4 -44 -15 0 -8 5 -15
11 -15 7 0 8 -3 1 -8 -6 -4 -11 -15 -12 -24 0 -10 -1 -21 -2 -25 -1 -5 -28 -8
-61 -8 -47 -1 -63 -5 -74 -20 -14 -19 -15 -19 -9 4 4 17 3 22 -6 17 -7 -4 -11
-15 -10 -24 1 -10 1 -31 0 -47 -1 -29 -3 -31 -36 -27 -52 6 -65 -2 -56 -35 11
-43 3 -63 -25 -61 -13 1 -24 5 -24 9 0 3 -7 6 -15 6 -8 0 -12 -4 -9 -9 3 -4
-2 -8 -10 -8 -11 0 -14 -8 -11 -30 2 -16 7 -35 11 -41 4 -8 3 -9 -4 -5 -7 4
-12 2 -12 -6 0 -7 -7 -3 -15 9 -8 12 -13 28 -10 36 4 8 0 14 -10 14 -10 0 -14
-6 -10 -15 4 -11 2 -12 -8 -4 -10 8 -13 6 -13 -9 0 -11 5 -18 12 -15 7 3 18
-1 24 -9 10 -11 7 -13 -14 -9 -14 2 -26 0 -26 -5 0 -6 -18 -9 -40 -7 -41 3
-53 -8 -39 -35 6 -11 3 -21 -7 -30 -12 -10 -12 -14 -2 -21 8 -6 -4 -8 -34 -6
-40 3 -48 0 -49 -14 -3 -40 -7 -78 -8 -82 -3 -13 -61 18 -61 32 0 14 2 15 9 3
12 -18 39 -23 48 -9 4 7 1 8 -7 3 -10 -6 -12 -3 -8 13 5 18 3 20 -12 12 -15
-8 -18 -6 -16 13 2 14 -2 24 -10 24 -7 0 -11 -4 -8 -9 3 -4 2 -13 -2 -20 -4
-7 -8 -26 -8 -43 -1 -29 -2 -30 -48 -27 -25 2 -49 -2 -53 -7 -3 -6 0 -8 8 -5
8 3 18 0 22 -6 3 -6 1 -9 -6 -8 -9 2 -12 -7 -11 -28 3 -30 1 -32 -37 -36 -23
-2 -41 -1 -42 2 -6 36 -4 48 5 43 8 -5 8 -3 1 8 -13 18 -11 195 2 192 5 -1 10
4 10 12 0 7 -5 11 -12 9 -6 -3 -11 5 -12 16 -1 11 3 20 8 20 6 0 7 -4 4 -10
-3 -5 -4 -10 -1 -10 3 0 10 8 15 19 8 15 7 18 -6 17 -9 0 -18 5 -21 13 -3 10
0 11 9 5 11 -6 10 -3 -1 11 -14 17 -13 18 4 12 14 -6 16 -5 8 5 -5 7 -12 36
-13 65 l-4 51 30 -2 c17 -1 35 -4 40 -8 7 -4 11 17 11 63 0 38 -5 69 -10 69
-5 0 -6 -3 -3 -6 3 -4 2 -15 -4 -25 -7 -15 -14 -17 -28 -10 -15 9 -17 6 -16
-18 1 -15 5 -33 10 -41 6 -9 4 -11 -5 -5 -9 6 -11 4 -5 -6 7 -12 6 -12 -7 -1
-12 10 -14 20 -8 41 6 23 4 32 -14 47 -11 10 -24 18 -28 16 -13 -4 -9 16 5 21
9 4 9 6 0 6 -18 1 -25 -17 -14 -36 7 -13 10 -14 11 -4 0 8 3 12 6 8 3 -3 3
-10 -1 -16 -4 -7 -14 -6 -29 4 -26 17 -23 33 -26 -140 -1 -42 -5 -55 -16 -55
-8 0 -12 -4 -9 -10 6 -9 -8 -15 -29 -11 -5 1 -6 -5 -2 -14 3 -9 6 -19 6 -23 0
-3 6 2 13 13 14 18 37 14 37 -8 0 -7 -4 -6 -10 3 -5 8 -12 11 -16 7 -4 -4 0
-15 9 -25 15 -16 15 -18 -2 -18 -10 0 -17 5 -14 11 2 7 -3 12 -12 12 -11 0
-14 -6 -9 -21 3 -13 2 -16 -3 -9 -16 22 -30 -2 -29 -45 1 -24 -1 -45 -5 -48
-4 -2 -5 -14 -2 -27 4 -21 4 -21 -11 -3 -9 11 -28 21 -43 22 -18 2 -23 0 -14
-5 8 -6 9 -11 3 -15 -16 -9 -10 -44 8 -52 22 -10 43 -13 35 -6 -4 4 -12 7 -17
7 -27 0 -15 20 12 21 16 1 30 -3 30 -8 0 -5 -5 -6 -10 -3 -6 3 -10 1 -10 -4 0
-6 5 -11 12 -11 18 0 3 -10 -22 -15 -13 -3 -29 0 -36 5 -9 8 -12 -3 -13 -45
-5 -152 -5 -156 -17 -151 -7 3 -15 0 -18 -7 -2 -7 -5 -4 -5 6 -1 9 -5 17 -10
17 -5 0 -8 -7 -7 -16 0 -9 -6 -19 -14 -21 -13 -4 -13 -3 0 6 11 8 12 11 2 11
-8 0 -10 5 -6 13 4 6 3 8 -1 4 -14 -12 -15 -41 -2 -49 9 -6 9 -8 0 -8 -7 0
-13 -5 -13 -11 0 -5 6 -7 13 -3 9 6 8 3 -1 -9 -8 -9 -13 -26 -12 -39 1 -13 2
-38 1 -57 -1 -29 -4 -33 -22 -28 -15 4 -18 2 -10 -7 5 -6 6 -17 2 -24 -8 -14
-41 -6 -41 10 0 6 6 6 14 -1 10 -8 16 -9 21 -1 3 5 2 10 -4 10 -5 0 -16 3 -24
6 -12 4 -15 -4 -14 -40 0 -25 3 -43 7 -41 3 2 12 -1 20 -7 13 -8 12 -9 -2 -5
-26 9 -34 -13 -33 -86 0 -46 -3 -66 -11 -63 -6 2 -17 1 -24 -4 -10 -6 -10 -12
0 -26 10 -17 11 -17 6 -1 -4 12 -2 16 6 11 7 -5 8 -3 3 7 -7 12 -6 11 9 0 17
-14 17 -15 0 -28 -10 -8 -22 -9 -27 -4 -5 5 -17 7 -27 4 -15 -4 -18 -14 -18
-56 1 -29 6 -58 12 -66 8 -11 8 -13 -1 -7 -9 5 -12 -3 -10 -32 2 -33 5 -39 24
-38 11 0 19 4 16 9 -2 4 0 7 6 7 5 0 11 -5 13 -12 3 -7 10 -8 17 -3 11 6 8 11
-10 22 l-24 14 25 -7 c24 -7 24 -6 7 19 -12 19 -13 27 -4 34 15 12 59 15 53 4
-3 -4 1 -8 9 -8 8 0 12 4 9 9 -5 7 64 12 148 11 16 -1 28 4 28 11 0 6 5 4 10
-4 8 -12 10 -11 10 7 0 16 -6 21 -20 20 -12 -1 -18 -7 -16 -14 3 -7 -1 -10 -9
-6 -8 3 -12 9 -9 14 3 5 -2 9 -10 9 -9 0 -16 5 -16 10 0 6 5 10 10 10 6 0 9 6
8 12 -2 7 4 13 12 13 8 0 14 -6 12 -13 -1 -8 3 -12 10 -9 7 2 12 10 10 16 -1
7 2 10 8 6 5 -3 10 -2 10 2 0 5 26 8 58 8 39 0 61 5 70 15 11 13 12 13 10 0
-2 -9 3 -14 12 -11 8 2 31 5 50 7 19 2 40 5 46 6 6 1 11 17 12 35 1 19 -3 31
-8 28 -5 -3 -7 -11 -4 -19 3 -7 -2 -13 -11 -13 -17 0 -19 9 -5 23 7 7 6 11 -4
11 -8 0 -12 -5 -9 -10 3 -6 1 -7 -6 -3 -13 9 -11 -15 3 -25 4 -4 3 -10 -3 -13
-6 -4 -11 -2 -11 4 0 6 -5 8 -11 4 -8 -4 -7 -9 2 -16 11 -8 11 -9 -1 -5 -9 2
-15 15 -15 33 1 16 -2 31 -6 34 -4 3 33 6 83 8 49 1 99 7 110 13 15 8 19 8 14
0 -4 -6 0 -11 9 -11 9 0 14 4 11 9 -3 5 2 15 12 22 15 13 16 12 3 -3 -7 -10
-12 -18 -10 -19 31 -6 40 -6 44 1 3 5 15 7 26 5 16 -3 18 -1 10 9 -6 7 -8 16
-4 19 7 8 -16 37 -30 37 -6 0 -3 -6 7 -13 17 -12 17 -14 -2 -37 l-19 -23 1 43
1 43 60 3 c127 6 134 7 128 18 -4 6 0 5 9 -2 8 -6 26 -11 40 -10 18 2 24 8 24
25 0 15 -5 22 -14 20 -8 -1 -16 4 -18 11 -1 7 0 8 3 2 2 -5 9 -7 14 -4 6 4 6
10 0 18 -8 9 1 13 37 15 26 2 61 5 77 6 17 1 44 3 60 4 23 1 27 3 15 11 -8 5
-11 10 -6 10 5 0 3 7 -4 15 -10 12 -9 15 6 16 18 0 18 1 -1 9 -18 8 -18 9 5
10 23 1 24 2 5 11 -18 8 -18 9 5 8 59 -3 60 -2 60 50 0 49 13 67 43 55 7 -2
22 6 33 18 15 18 15 20 2 9 -17 -13 -26 -2 -11 13 22 22 -3 56 -29 39 -7 -3
-8 -1 -4 6 4 6 18 9 30 7 21 -4 23 0 23 32 0 64 2 74 15 66 7 -5 8 -3 2 7 -4
8 -9 30 -10 50 -1 31 2 36 20 35 11 -1 21 -7 21 -15 0 -18 21 -26 30 -12 3 6
0 9 -8 5 -8 -3 -14 2 -14 11 0 9 6 14 13 11 13 -5 27 31 14 39 -10 6 0 58 13
66 5 4 20 6 33 4 13 -1 21 2 18 7 -3 5 -13 7 -21 4 -9 -4 -13 -1 -10 6 2 7 10
12 16 10 6 -1 11 3 11 8 0 6 -7 10 -16 8 -9 -2 -23 7 -30 18 -14 20 -13 21 13
22 60 0 59 0 58 45 -2 57 3 69 29 62 20 -5 20 -5 -1 6 -18 10 -22 20 -21 51 1
22 8 44 17 51 14 10 14 10 4 -3 -7 -9 -8 -21 -4 -29 7 -10 9 -9 14 3 4 9 13
13 21 10 20 -8 30 14 27 58 -1 25 2 38 11 38 10 0 10 2 1 8 -13 8 -13 29 0 50
5 7 4 12 -2 12 -6 0 -11 5 -11 11 0 6 7 9 15 5 21 -8 46 4 38 18 -4 6 1 5 10
-3 9 -7 17 -12 18 -10 7 29 8 109 1 113 -5 3 -8 -8 -6 -24 2 -17 0 -30 -5 -30
-5 0 -8 8 -8 18 0 43 -4 45 -23 15 -11 -18 -23 -33 -26 -33 -4 0 -1 7 6 15 6
8 8 20 4 26 -5 8 -3 9 6 4 9 -5 11 -4 6 3 -10 17 -14 15 -27 -10z m31 -89 c0
-5 -5 -9 -12 -9 -6 0 -8 3 -5 7 4 3 1 13 -6 22 -11 14 -10 14 6 2 9 -7 17 -17
17 -22z m-165 -18 c3 -5 2 -12 -3 -15 -5 -3 -9 1 -9 9 0 17 3 19 12 6z m-15
-41 c0 -5 -5 -10 -11 -10 -5 0 -7 5 -4 10 3 6 8 10 11 10 2 0 4 -4 4 -10z m44
-18 c3 -5 -1 -9 -9 -9 -8 0 -15 4 -15 9 0 4 4 8 9 8 6 0 12 -4 15 -8z m76 -56
c0 -3 -4 -8 -10 -11 -5 -3 -10 -1 -10 4 0 6 5 11 10 11 6 0 10 -2 10 -4z
m-1014 -117 c1 -25 -2 -35 -7 -27 -7 10 -9 10 -9 -2 0 -13 -2 -13 -9 0 -6 8
-7 18 -5 22 3 4 0 8 -6 8 -7 0 -10 6 -7 13 2 6 9 12 15 12 5 0 14 3 18 8 4 4
8 7 8 7 1 0 2 -18 2 -41z m684 26 c-10 -12 -10 -18 0 -30 7 -9 8 -15 2 -15 -5
0 -12 7 -16 15 -3 8 -11 15 -17 15 -7 0 -5 -10 6 -27 l17 -28 -22 21 c-23 22
-20 44 6 44 8 0 14 5 14 10 0 6 5 10 11 10 8 0 8 -5 -1 -15z m203 -211 c7 -7
-2 -34 -12 -34 -4 0 -7 9 -7 20 0 20 7 25 19 14z m-1153 -189 c0 -5 -5 -3 -10
5 -5 8 -10 10 -10 4 0 -6 -7 -11 -15 -11 -20 0 -19 14 2 26 18 9 33 -1 33 -24z
m334 -73 c3 -5 -1 -9 -9 -9 -8 0 -12 4 -9 9 3 4 7 8 9 8 2 0 6 -4 9 -8z m-19
-51 c3 -5 2 -12 -3 -15 -5 -3 -9 1 -9 9 0 17 3 19 12 6z m661 -30 c-4 -5 0
-12 6 -14 10 -4 10 -8 -1 -15 -17 -12 1 -24 24 -16 13 5 14 9 4 15 -8 4 -10
11 -6 16 17 16 26 -21 10 -39 -12 -14 -13 -18 -3 -18 7 0 10 -3 7 -6 -4 -4
-13 -1 -22 6 -10 8 -15 9 -15 1 0 -6 -4 -11 -8 -11 -5 0 -7 19 -6 43 3 48 2
47 10 47 3 0 3 -4 0 -9z m-1071 -121 c-3 -5 -12 -10 -18 -10 -7 0 -6 4 3 10
19 12 23 12 15 0z m-59 -195 c-1 -14 -6 -28 -9 -32 -12 -11 -8 -25 5 -17 7 4
8 3 4 -4 -5 -8 -16 -5 -37 10 -34 26 -35 27 -10 25 11 0 17 -5 14 -10 -3 -5 0
-8 8 -5 8 3 14 11 15 19 2 29 4 39 8 39 3 0 3 -11 2 -25z m794 15 c0 -5 -5
-10 -11 -10 -5 0 -7 5 -4 10 3 6 8 10 11 10 2 0 4 -4 4 -10z m40 4 c0 -8 -19
-13 -24 -6 -3 5 1 9 9 9 8 0 15 -2 15 -3z m-10 -51 c0 -8 5 -11 12 -7 7 5 8 3
3 -6 -6 -10 -11 -10 -20 3 -7 9 -14 15 -17 12 -2 -3 -5 1 -5 9 0 8 6 12 14 9
7 -3 13 -12 13 -20z m-237 -68 c-3 -9 -8 -14 -10 -11 -3 3 -2 9 2 15 9 16 15
13 8 -4z m-173 -124 c0 -5 -7 -12 -16 -15 -14 -5 -15 -4 -4 9 14 17 20 19 20
6z m-530 -145 c-7 -7 -13 -7 -20 0 -6 6 -3 10 10 10 13 0 16 -4 10 -10z m-16
-34 c2 -4 0 -14 -6 -22 -8 -12 -9 -12 -5 2 3 9 1 19 -6 22 -9 3 -9 5 0 5 6 1
14 -3 17 -7z"/>
<path d="M1070 2075 c5 -7 6 -16 2 -21 -4 -5 -3 -5 2 -1 15 12 15 34 0 34 -9
0 -11 -4 -4 -12z"/>
<path d="M2085 2410 c-3 -5 -12 -7 -20 -3 -17 6 -21 -12 -5 -22 8 -5 7 -11 -1
-21 -10 -12 -9 -17 0 -27 10 -9 11 -8 5 7 -6 15 -4 17 6 11 8 -5 11 -4 7 2 -4
5 5 16 18 23 13 7 27 20 30 28 4 12 0 11 -16 -4 -20 -17 -22 -17 -16 -1 7 18
2 23 -8 7z m0 -28 c-3 -3 -11 0 -18 7 -9 10 -8 11 6 5 10 -3 15 -9 12 -12z"/>
<path d="M4553 2399 c-2 -17 1 -18 12 -9 8 7 12 16 9 21 -9 16 -20 10 -21 -12z"/>
<path d="M2316 2401 c-3 -5 2 -15 12 -22 15 -12 16 -12 5 2 -7 9 -10 19 -6 22
3 4 4 7 0 7 -3 0 -8 -4 -11 -9z"/>
<path d="M1075 2303 c30 -16 30 -16 7 -26 -12 -6 -22 -14 -22 -19 0 -5 12 -1
26 9 l26 17 -22 18 c-12 10 -27 18 -34 18 -6 -1 2 -8 19 -17z"/>
<path d="M1029 2291 c7 -12 6 -22 -2 -31 -9 -10 -9 -11 1 -6 7 4 12 1 12 -8 0
-9 5 -16 10 -16 7 0 7 6 0 19 -8 15 -7 22 5 29 13 7 12 10 -10 20 -23 11 -25
10 -16 -7z"/>
<path d="M2190 2288 c0 -7 4 -19 9 -27 7 -10 9 -7 8 12 -2 26 -17 39 -17 15z"/>
<path d="M2147 2264 c7 -3 15 -5 19 -4 4 1 11 -4 16 -12 8 -11 9 -10 6 1 -2 8
-15 15 -29 17 -13 1 -18 0 -12 -2z"/>
<path d="M1093 2254 c-7 -3 -10 -11 -7 -18 5 -13 -7 -16 -66 -17 -32 -1 -33
-2 -11 -10 17 -7 21 -13 13 -22 -11 -15 -8 -45 8 -61 8 -8 10 -4 6 17 -3 17 0
27 7 27 8 0 8 3 -1 9 -10 6 -10 10 3 21 8 7 15 9 15 6 0 -15 38 15 43 34 3 11
4 20 4 19 -1 0 -7 -3 -14 -5z"/>
<path d="M4172 2223 c-6 -2 -9 -10 -5 -16 4 -7 -2 -5 -12 3 -17 14 -18 13 -12
-2 3 -10 2 -18 -3 -18 -6 0 -10 7 -10 15 0 8 -7 15 -15 15 -8 0 -15 -5 -15
-11 0 -5 6 -7 13 -4 6 4 5 1 -4 -7 -10 -9 -13 -21 -9 -38 7 -30 -17 -55 -37
-38 -9 7 -13 7 -13 -1 0 -9 -5 -9 -21 -1 -18 10 -20 9 -19 -12 5 -53 0 -78
-16 -78 -8 0 -12 -4 -9 -10 3 -5 1 -10 -4 -10 -6 0 -11 6 -11 13 0 8 -4 7 -10
-3 -6 -10 -10 -11 -10 -2 0 6 -4 12 -9 12 -6 0 -11 -21 -13 -47 l-3 -48 -42
-3 c-30 -2 -43 -8 -43 -18 0 -9 5 -12 12 -8 8 5 8 3 2 -7 -5 -8 -10 -25 -10
-39 -3 -43 -4 -46 -12 -35 -12 16 -72 12 -73 -5 -1 -8 -2 -22 -3 -30 -1 -8 2
-20 7 -27 11 -15 -10 -27 -52 -28 -19 0 -36 -6 -39 -13 -2 -7 1 -12 7 -12 6 0
11 -5 11 -11 0 -5 -5 -7 -12 -3 -7 5 -9 1 -6 -13 9 -33 -7 -50 -46 -47 -38 3
-57 -12 -35 -28 11 -7 11 -11 1 -15 -9 -3 -7 -9 6 -21 9 -10 13 -14 8 -9 -14
10 -28 9 -22 -2 3 -4 -3 -19 -14 -31 -11 -13 -20 -19 -20 -14 0 6 5 15 10 20
7 7 6 11 -5 11 -8 0 -15 -4 -15 -8 0 -4 -7 -10 -16 -13 -14 -5 -15 -4 -4 9 11
13 10 14 -3 9 -10 -4 -15 -18 -14 -42 1 -44 -10 -82 -24 -82 -6 0 -7 -5 -4
-10 4 -6 11 -7 17 -4 7 4 8 2 4 -5 -6 -9 -11 -9 -22 0 -10 9 -14 9 -14 0 0 -6
7 -14 15 -17 8 -4 15 -14 14 -23 0 -11 -2 -12 -6 -3 -4 10 -8 10 -21 0 -15
-12 -16 -11 -3 5 12 15 11 17 -10 15 -28 -3 -41 -27 -25 -47 8 -11 8 -13 -1
-7 -7 4 -13 2 -13 -3 0 -6 5 -11 11 -11 6 0 7 -5 2 -12 -11 -18 -13 -79 -2
-72 5 3 9 0 9 -5 0 -6 -4 -11 -8 -11 -11 0 -9 -61 2 -79 6 -9 5 -12 -1 -8 -11
7 -12 -122 -1 -139 4 -6 4 -14 0 -18 -3 -4 -8 -149 -9 -323 -1 -173 -4 -322
-7 -329 -3 -8 -2 -14 2 -14 4 0 5 -24 4 -54 -4 -53 -4 -54 28 -58 17 -3 33 -1
36 4 3 5 10 6 15 2 6 -3 3 -12 -8 -21 -15 -13 -14 -13 8 0 15 9 40 15 56 15
25 -1 30 -5 29 -26 -1 -17 5 -26 17 -28 9 -1 15 2 11 7 -3 5 -10 7 -15 4 -10
-7 -7 30 4 41 4 4 14 1 24 -7 11 -9 14 -10 9 -1 -5 9 8 12 54 12 46 0 59 -3
54 -12 -5 -8 0 -7 11 2 17 14 18 13 12 -2 -8 -23 8 -32 30 -18 15 9 15 10 -5
5 -22 -6 -23 -5 -12 15 7 13 15 19 19 14 8 -12 101 -13 101 -1 0 6 8 3 18 -6
10 -10 23 -17 28 -17 5 0 2 5 -6 11 -13 9 -13 10 1 6 9 -3 21 -1 27 5 6 6 12
6 17 -3 6 -8 4 -10 -5 -4 -9 5 -11 4 -6 -4 6 -9 11 -9 21 -1 8 7 19 9 26 5 6
-4 16 -1 21 6 7 10 8 5 4 -16 -5 -22 -4 -26 4 -15 8 13 10 13 10 -1 0 -25 23
-40 40 -27 13 8 12 9 -1 5 -11 -4 -20 3 -28 19 -16 35 -15 37 18 32 27 -4 28
-3 20 24 -4 16 -4 28 1 28 6 0 5 11 0 26 -6 14 -10 37 -10 50 0 27 -21 29 -28
3 -3 -11 -2 -11 7 1 12 17 15 1 3 -17 -8 -12 -36 -12 -49 0 -11 11 -13 38 -2
31 11 -6 12 9 2 20 -9 8 -12 27 -14 98 -1 31 -6 55 -11 52 -4 -3 -6 -9 -3 -14
3 -5 0 -12 -6 -16 -8 -5 -9 -3 -4 5 5 9 -1 11 -23 8 -29 -5 -30 -4 -34 39 -2
27 1 43 7 41 5 -2 10 -15 11 -28 2 -49 3 -50 24 -39 16 8 19 17 14 33 -6 20
-5 21 12 7 11 -8 9 -3 -5 13 -25 27 -43 39 -22 14 6 -8 8 -17 4 -20 -9 -9 -23
-9 -22 1 3 20 -3 32 -17 32 -10 0 -14 6 -11 15 4 8 2 17 -4 21 -6 4 -6 11 2
20 9 11 8 14 -2 14 -12 0 -12 2 -1 9 19 12 -8 21 -42 15 -14 -2 -27 -1 -27 3
-1 5 -3 27 -4 50 -3 50 -12 76 -23 69 -4 -2 -14 0 -22 5 -11 7 -7 8 13 5 26
-4 27 -3 25 28 -2 29 -6 34 -27 34 -15 0 -32 -5 -39 -11 -7 -6 -12 -6 -11 -1
1 5 0 11 -1 14 -5 12 -6 80 -1 80 3 0 6 22 7 50 1 33 -3 47 -10 43 -6 -3 -7
-2 -3 3 4 4 23 9 42 9 24 1 32 -2 28 -13 -5 -11 -7 -11 -15 0 -7 10 -8 8 -4
-5 4 -13 2 -16 -7 -11 -6 4 -1 -6 13 -22 14 -15 18 -23 8 -16 -11 9 -18 10
-23 2 -3 -6 -11 -8 -16 -5 -5 4 -9 2 -9 -4 0 -5 5 -13 10 -16 6 -3 10 -2 10 4
0 5 11 8 24 5 23 -4 25 -2 21 33 -4 44 3 66 21 59 8 -3 11 2 9 15 -3 13 2 19
16 19 10 0 18 -5 16 -11 -1 -6 5 -14 13 -16 12 -4 12 -3 2 5 -8 5 -13 13 -13
18 1 5 -9 9 -21 9 -13 0 -22 -5 -21 -12 2 -7 -1 -13 -7 -13 -5 0 -9 11 -8 25
2 18 7 24 18 20 11 -4 10 -1 -2 9 -10 7 -18 16 -18 20 0 9 24 3 32 -9 5 -6 8
-5 8 3 0 7 5 10 10 7 8 -5 7 -12 -2 -23 -12 -15 -11 -16 4 -3 10 7 15 17 12
22 -3 5 2 9 10 9 12 0 16 11 16 48 l0 49 40 -3 40 -2 0 49 c0 52 3 54 58 49
22 -1 26 9 24 67 -1 12 15 38 36 60 34 36 37 29 4 -9 -13 -16 -13 -18 0 -18 8
0 20 10 27 23 l11 22 -6 -24 c-4 -16 -3 -21 5 -17 6 4 11 21 10 39 0 18 0 177
1 355 1 178 0 326 -3 329 -3 3 -2 16 3 29 5 13 8 24 7 23 -1 0 -8 -3 -15 -6z
m-7 -53 c3 -6 -1 -7 -9 -4 -18 7 -21 14 -7 14 6 0 13 -4 16 -10z m-330 -368
c-3 -3 -11 0 -18 7 -9 10 -8 11 6 5 10 -3 15 -9 12 -12z m-40 -2 c-3 -5 -12
-10 -18 -10 -7 0 -6 4 3 10 19 12 23 12 15 0z m10 -31 c11 -16 1 -19 -13 -3
-7 8 -8 14 -3 14 5 0 13 -5 16 -11z m-61 -85 c3 -8 2 -12 -4 -9 -6 3 -10 10
-10 16 0 14 7 11 14 -7z m-23 -37 c-10 -9 -11 -8 -5 6 3 10 9 15 12 12 3 -3 0
-11 -7 -18z m-88 -68 c-8 -8 -13 -7 -18 2 -5 8 -4 10 3 5 7 -4 12 -2 12 5 0 7
3 9 7 6 4 -4 2 -12 -4 -18z m32 1 c3 -5 1 -10 -4 -10 -6 0 -11 5 -11 10 0 6 2
10 4 10 3 0 8 -4 11 -10z m469 -69 c-2 -3 -12 3 -22 13 -16 17 -16 18 5 5 12
-7 20 -15 17 -18z m30 17 c-3 -4 -11 -5 -19 -1 -21 7 -19 12 4 10 11 0 18 -5
15 -9z m-618 -46 c4 -24 -11 -38 -22 -21 -4 7 -3 9 4 5 7 -4 10 1 9 14 -1 21
-17 29 -17 8 0 -6 -3 -9 -6 -5 -9 9 6 29 19 24 5 -1 12 -13 13 -25z m584 12
c0 -2 -7 -4 -15 -4 -8 0 -15 4 -15 10 0 5 7 7 15 4 8 -4 15 -8 15 -10z m-550
-29 c0 -5 -5 -3 -10 5 -5 8 -10 20 -10 25 0 6 5 3 10 -5 5 -8 10 -19 10 -25z
m247 -450 c0 -8 -4 -12 -9 -9 -5 3 -6 10 -3 15 9 13 12 11 12 -6z m-46 -188
c-10 -9 -11 -8 -5 6 3 10 9 15 12 12 3 -3 0 -11 -7 -18z m199 -307 c0 -5 -7
-10 -15 -10 -8 0 -15 5 -15 10 0 6 7 10 15 10 8 0 15 -4 15 -10z"/>
<path d="M970 2214 c0 -20 27 -37 36 -23 4 7 3 9 -4 5 -6 -3 -15 2 -21 11 -6
10 -11 13 -11 7z"/>
<path d="M1821 2204 c0 -11 3 -14 6 -6 3 7 2 16 -1 19 -3 4 -6 -2 -5 -13z"/>
<path d="M1090 2201 c0 -6 -9 -8 -19 -6 -13 2 -19 -2 -19 -13 0 -9 0 -21 -2
-27 -5 -20 0 -36 10 -30 6 3 10 0 10 -7 0 -10 3 -9 10 2 10 16 -7 33 -23 23
-5 -3 -4 4 2 15 6 11 20 24 31 27 21 7 28 25 10 25 -5 0 -10 -4 -10 -9z"/>
<path d="M3865 2192 c-11 -24 -11 -52 -1 -51 5 0 13 -5 17 -13 7 -10 9 -10 9
0 0 6 6 11 13 10 7 -2 11 5 9 16 -2 13 1 16 10 10 10 -6 11 -5 1 7 -6 8 -11
18 -10 23 4 17 -41 16 -48 -2z m40 -22 c0 -20 -5 -26 -21 -26 -12 0 -20 6 -19
16 3 42 41 52 40 10z"/>
<path d="M3876 2182 c-2 -4 -1 -14 3 -21 6 -10 10 -9 14 3 6 16 -8 32 -17 18z"/>
<path d="M944 2188 c3 -15 26 -23 26 -8 0 6 -4 9 -9 6 -5 -4 -12 -1 -14 4 -3
6 -4 5 -3 -2z"/>
<path d="M1795 2180 c3 -5 8 -10 11 -10 2 0 4 5 4 10 0 6 -5 10 -11 10 -5 0
-7 -4 -4 -10z"/>
<path d="M1855 2179 c-4 -6 -5 -12 -2 -15 2 -3 7 2 10 11 7 17 1 20 -8 4z"/>
<path d="M4535 2180 c-3 -5 -1 -10 4 -10 6 0 11 5 11 10 0 6 -2 10 -4 10 -3 0
-8 -4 -11 -10z"/>
<path d="M1088 2173 c-10 -2 -18 -9 -18 -14 0 -14 16 -11 30 6 7 8 11 14 9 14
-2 -1 -12 -3 -21 -6z"/>
<path d="M1820 2165 c0 -8 4 -15 10 -15 5 0 7 7 4 15 -4 8 -8 15 -10 15 -2 0
-4 -7 -4 -15z"/>
<path d="M4576 2164 c-4 -9 -4 -19 -1 -22 3 -3 5 0 5 7 0 7 4 9 10 6 6 -3 7 1
4 9 -8 20 -10 20 -18 0z"/>
<path d="M3164 2116 c-3 -9 -11 -13 -17 -9 -6 4 -7 1 -2 -6 6 -10 11 -9 23 3
9 8 13 19 9 22 -4 4 -9 -1 -13 -10z"/>
<path d="M3190 2120 c0 -5 5 -12 10 -15 6 -3 10 -1 10 5 0 6 6 8 13 4 6 -4 8
-3 4 1 -10 12 -37 15 -37 5z"/>
<path d="M3774 2109 c1 -7 14 -13 28 -13 15 -1 24 2 21 7 -3 5 -14 7 -24 4
-10 -3 -20 -1 -23 4 -2 5 -3 4 -2 -2z"/>
<path d="M2110 2100 c0 -5 5 -10 11 -10 5 0 7 5 4 10 -3 6 -8 10 -11 10 -2 0
-4 -4 -4 -10z"/>
<path d="M3200 2090 c-13 -9 -13 -11 0 -20 22 -14 26 -12 26 10 0 22 -4 24
-26 10z"/>
<path d="M3796 2082 c-2 -4 -1 -14 4 -22 7 -11 9 -9 7 8 -1 24 -3 26 -11 14z"/>
<path d="M3135 2069 c-4 -6 -5 -12 -2 -15 2 -3 7 2 10 11 7 17 1 20 -8 4z"/>
<path d="M2090 2064 c0 -11 29 -34 34 -26 2 4 -4 13 -15 20 -10 7 -19 10 -19
6z"/>
<path d="M3815 2040 c-3 -6 1 -7 9 -4 18 7 21 14 7 14 -6 0 -13 -4 -16 -10z"/>
<path d="M3083 2015 c-7 -8 -9 -16 -5 -19 4 -3 13 4 20 15 14 22 3 25 -15 4z"/>
<path d="M3125 2020 c3 -5 8 -10 11 -10 2 0 4 5 4 10 0 6 -5 10 -11 10 -5 0
-7 -4 -4 -10z"/>
<path d="M2759 2002 c6 -11 7 -23 3 -28 -4 -5 -5 -8 -3 -7 2 2 11 -3 19 -10
13 -10 15 -9 10 4 -3 9 -2 22 3 30 8 11 9 10 7 -5 -2 -10 4 -21 12 -23 9 -3
11 -1 5 4 -5 4 -10 15 -10 23 0 8 -5 15 -12 15 -6 0 -15 3 -19 8 -14 14 -25 7
-15 -11z"/>
<path d="M1045 2000 c-3 -6 1 -7 9 -4 18 7 21 14 7 14 -6 0 -13 -4 -16 -10z"/>
<path d="M1087 1999 c7 -7 15 -10 18 -7 3 3 -2 9 -12 12 -14 6 -15 5 -6 -5z"/>
<path d="M1076 1974 c19 -15 19 -16 -1 -9 -15 5 -17 3 -8 -6 17 -17 37 -1 22
17 -6 8 -16 14 -22 14 -6 0 -2 -7 9 -16z"/>
<path d="M4394 1982 c4 -3 14 -7 22 -8 9 -1 13 0 10 4 -4 3 -14 7 -22 8 -9 1
-13 0 -10 -4z"/>
<path d="M3073 1965 c0 -8 4 -12 9 -9 4 3 8 0 8 -5 0 -6 5 -11 10 -11 6 0 5 8
-2 20 -15 24 -25 26 -25 5z"/>
<path d="M2754 1952 c-12 -8 -13 -57 -2 -68 4 -4 4 -12 1 -18 -11 -16 -11
-116 -1 -122 5 -3 3 -13 -4 -22 -8 -11 -4 -10 11 3 13 11 25 19 27 18 24 -15
33 53 9 69 -6 5 -6 8 3 8 6 0 12 7 12 15 0 8 -5 15 -11 15 -5 0 -8 -4 -4 -9 3
-5 1 -13 -5 -16 -7 -4 -8 -11 -1 -18 6 -8 5 -21 -4 -37 -13 -24 -13 -23 -11
17 2 34 0 40 -13 36 -11 -4 -10 0 4 11 11 10 13 14 5 10 -12 -6 -13 -5 -4 7 9
12 10 27 5 72 -1 8 -4 8 -12 -3 -9 -13 -10 -13 -6 0 2 8 10 14 16 13 13 -3 15
13 3 21 -4 2 -13 2 -18 -2z m13 -57 c0 -8 -4 -12 -9 -9 -5 3 -6 10 -3 15 9 13
12 11 12 -6z m-2 -95 c3 -5 1 -10 -4 -10 -6 0 -11 5 -11 10 0 6 2 10 4 10 3 0
8 -4 11 -10z m1 -40 c0 -12 -4 -16 -9 -11 -5 5 -6 14 -3 20 10 15 12 14 12 -9z
m25 -13 c-10 -9 -11 -8 -5 6 3 10 9 15 12 12 3 -3 0 -11 -7 -18z"/>
<path d="M1044 1939 c-4 -7 -3 -9 4 -5 6 3 13 -2 15 -11 4 -16 5 -16 6 -1 1
21 -15 32 -25 17z"/>
<path d="M1095 1939 c-4 -6 -5 -12 -2 -15 2 -3 7 2 10 11 7 17 1 20 -8 4z"/>
<path d="M2789 1943 c-1 -4 -2 -27 -3 -49 -1 -31 2 -40 11 -37 17 7 17 33 1
33 -10 0 -10 2 -1 8 16 10 20 44 6 49 -7 3 -14 1 -14 -4z m14 -18 c-3 -9 -8
-14 -10 -11 -3 3 -2 9 2 15 9 16 15 13 8 -4z"/>
<path d="M870 1930 c-16 -10 -23 -40 -9 -40 5 0 9 -5 9 -11 0 -5 -4 -8 -8 -5
-5 3 -9 -1 -9 -9 0 -18 16 -20 18 -2 1 6 3 19 4 27 1 8 3 22 4 30 1 13 2 13
11 0 6 -9 10 -10 10 -3 0 17 -14 23 -30 13z"/>
<path d="M3037 1920 c3 -11 9 -22 13 -25 5 -3 6 4 3 15 -3 11 -9 22 -13 25 -5
3 -6 -4 -3 -15z"/>
<path d="M1450 1918 c0 -4 12 -6 28 -5 22 2 27 -2 27 -20 0 -11 2 -24 5 -27 5
-4 6 34 1 55 -1 9 -61 6 -61 -3z"/>
<path d="M2167 1915 c-4 -8 -1 -17 5 -21 7 -4 8 -3 4 4 -4 7 -2 12 3 12 6 0
11 5 11 10 0 15 -17 12 -23 -5z"/>
<path d="M1990 1910 c0 -5 5 -10 11 -10 5 0 7 5 4 10 -3 6 -8 10 -11 10 -2 0
-4 -4 -4 -10z"/>
<path d="M2021 1913 c-1 -17 16 -25 25 -12 4 7 3 9 -4 5 -5 -3 -13 0 -15 6 -4
9 -6 10 -6 1z"/>
<path d="M1086 1898 c3 -5 10 -6 15 -3 13 9 11 12 -6 12 -8 0 -12 -4 -9 -9z"/>
<path d="M3028 1883 c6 -2 9 -10 6 -15 -4 -7 -2 -8 5 -4 13 9 5 26 -12 25 -9
0 -8 -2 1 -6z"/>
<path d="M2030 1871 c0 -6 4 -13 10 -16 6 -3 7 1 4 9 -7 18 -14 21 -14 7z"/>
<path d="M2993 1865 c0 -8 4 -12 9 -9 5 3 6 10 3 15 -9 13 -12 11 -12 -6z"/>
<path d="M1070 1865 c0 -7 30 -13 34 -7 3 4 -4 9 -15 9 -10 1 -19 0 -19 -2z"/>
<path d="M1069 1823 c-13 -16 -12 -17 4 -4 9 7 17 15 17 17 0 8 -8 3 -21 -13z"/>
<path d="M1290 1779 c0 -5 5 -7 10 -4 6 3 10 8 10 11 0 2 -4 4 -10 4 -5 0 -10
-5 -10 -11z"/>
<path d="M2930 1766 c0 -2 7 -7 16 -10 8 -3 12 -2 9 4 -6 10 -25 14 -25 6z"/>
<path d="M1240 1725 c-9 -10 -9 -15 -1 -15 6 0 11 6 11 13 0 8 4 7 10 -3 6 -9
10 -10 10 -3 0 19 -17 24 -30 8z"/>
<path d="M1897 1717 c-3 -9 -2 -17 4 -17 6 0 7 -4 4 -10 -3 -5 -1 -18 4 -27 6
-10 11 -13 11 -8 0 6 5 3 10 -5 7 -10 10 -11 10 -2 0 7 -7 15 -15 18 -8 4 -15
10 -15 16 0 5 6 6 13 2 9 -6 9 -4 1 7 -6 8 -13 21 -16 28 -3 12 -6 12 -11 -2z"/>
<path d="M2790 1709 c0 -5 -5 -7 -12 -3 -7 4 -8 3 -4 -5 6 -9 11 -9 22 0 17
14 18 19 4 19 -5 0 -10 -5 -10 -11z"/>
<path d="M1940 1683 c0 -5 5 -15 10 -23 7 -12 9 -10 7 8 -1 19 -17 33 -17 15z"/>
<path d="M1036 1631 c-3 -5 1 -11 9 -14 9 -4 12 -1 8 9 -6 16 -10 17 -17 5z"/>
<path d="M1073 1605 c0 -8 4 -15 9 -15 4 0 8 4 8 9 0 6 -4 12 -8 15 -5 3 -9
-1 -9 -9z"/>
<path d="M3290 1601 c0 -6 4 -13 10 -16 6 -3 7 1 4 9 -7 18 -14 21 -14 7z"/>
<path d="M1040 1575 c-7 -9 -8 -15 -2 -15 5 0 12 7 16 15 3 8 4 15 2 15 -2 0
-9 -7 -16 -15z"/>
<path d="M3270 1565 c0 -7 30 -13 34 -7 3 4 -4 9 -15 9 -10 1 -19 0 -19 -2z"/>
<path d="M1973 1528 c1 -15 6 -23 11 -18 4 4 4 16 -2 26 -9 16 -10 14 -9 -8z"/>
<path d="M696 1515 c-9 -26 -7 -32 5 -12 6 10 9 21 6 23 -2 3 -7 -2 -11 -11z"/>
<path d="M2016 1501 c-3 -5 2 -15 12 -22 15 -13 16 -12 4 3 -10 13 -10 17 0
21 9 4 9 6 1 6 -6 1 -14 -3 -17 -8z"/>
<path d="M3430 1437 c0 -18 36 -19 51 -1 8 10 8 14 0 14 -6 0 -11 -6 -11 -12
0 -8 -3 -9 -8 -3 -11 15 -32 17 -32 2z"/>
<path d="M3415 1412 c-3 -3 -5 -10 -5 -16 0 -6 5 -4 10 4 8 13 10 12 10 -2 0
-10 5 -18 10 -18 6 0 10 8 10 18 0 17 -23 26 -35 14z"/>
<path d="M1745 1313 c-9 -12 -11 -23 -5 -23 5 0 10 5 10 11 0 5 5 7 10 4 6 -4
8 -10 6 -14 -3 -4 0 -13 6 -21 8 -12 9 -12 4 3 -3 10 0 17 7 17 7 0 4 5 -5 11
-10 5 -18 15 -18 21 0 7 4 7 13 -1 10 -8 14 -7 14 2 0 22 -26 16 -42 -10z"/>
<path d="M2535 1300 c3 -5 8 -10 11 -10 2 0 4 5 4 10 0 6 -5 10 -11 10 -5 0
-7 -4 -4 -10z"/>
<path d="M1905 1279 c-3 -4 2 -6 10 -5 21 3 28 13 10 13 -9 0 -18 -4 -20 -8z"/>
<path d="M2410 1230 c-9 -6 -10 -10 -3 -10 6 0 15 5 18 10 8 12 4 12 -15 0z"/>
<path d="M1556 1217 c3 -10 9 -15 12 -12 3 3 0 11 -7 18 -10 9 -11 8 -5 -6z"/>
<path d="M2453 1205 c0 -30 6 -28 12 4 2 11 0 21 -4 21 -5 0 -8 -11 -8 -25z"/>
<path d="M2693 1205 c0 -7 6 -11 14 -8 7 3 13 6 13 8 0 2 -6 5 -13 8 -8 3 -14
-1 -14 -8z"/>
<path d="M2773 1205 c0 -7 6 -11 14 -8 7 3 13 6 13 8 0 2 -6 5 -13 8 -8 3 -14
-1 -14 -8z"/>
<path d="M2815 1209 c-4 -6 -5 -12 -2 -15 2 -3 7 2 10 11 7 17 1 20 -8 4z"/>
<path d="M1585 1197 c-14 -11 -15 -16 -5 -22 9 -6 11 -4 5 5 -5 9 -1 11 16 6
13 -3 18 -3 11 0 -6 3 -10 10 -6 15 7 13 1 11 -21 -4z"/>
<path d="M2576 1202 c-3 -5 1 -9 9 -9 8 0 12 4 9 9 -3 4 -7 8 -9 8 -2 0 -6 -4
-9 -8z"/>
<path d="M2747 1191 c-4 -17 -3 -21 5 -13 5 5 8 16 6 23 -3 8 -7 3 -11 -10z"/>
<path d="M2630 1180 c0 -5 5 -10 10 -10 6 0 10 5 10 10 0 6 -4 10 -10 10 -5 0
-10 -4 -10 -10z"/>
<path d="M2706 1182 c-3 -5 1 -9 9 -9 8 0 12 4 9 9 -3 4 -7 8 -9 8 -2 0 -6 -4
-9 -8z"/>
<path d="M1331 1143 c-1 -18 13 -23 29 -11 12 8 12 9 -2 5 -9 -3 -19 -1 -22 6
-3 9 -5 9 -5 0z"/>
<path d="M1340 1104 c0 -6 7 -19 16 -30 14 -18 14 -18 3 6 -14 31 -19 36 -19
24z"/>
<path d="M1834 1072 c4 -7 2 -13 -3 -13 -6 -1 -17 -2 -23 -3 -8 0 -13 -16 -13
-38 0 -28 4 -36 16 -35 9 1 15 7 12 14 -3 7 2 16 11 19 14 5 14 9 4 22 -10 12
-10 14 0 8 7 -4 12 -2 12 8 0 8 -5 18 -12 22 -7 4 -8 3 -4 -4z m-15 -36 c9
-10 8 -15 -2 -19 -8 -3 -13 3 -13 14 0 23 0 23 15 5z"/>
<path d="M523 1040 c-8 -12 -9 -21 -3 -25 6 -3 10 -11 10 -16 0 -6 -5 -7 -12
-3 -7 5 -8 3 -3 -5 5 -9 10 -10 18 -2 7 7 6 15 -3 26 -12 14 -12 16 1 15 33
-5 42 -1 29 15 -16 20 -23 19 -37 -5z"/>
<path d="M1039 1048 c-5 -18 -6 -38 -1 -34 7 8 12 36 6 36 -2 0 -4 -1 -5 -2z"/>
<path d="M3779 1043 c0 -5 -2 -16 -4 -25 -4 -20 10 -33 19 -19 4 5 2 12 -3 16
-6 3 -8 12 -4 20 3 8 2 15 -1 15 -3 0 -6 -3 -7 -7z"/>
<path d="M1159 993 c-13 -16 -12 -17 4 -4 9 7 17 15 17 17 0 8 -8 3 -21 -13z"/>
<path d="M835 930 c-17 -18 -17 -20 -2 -14 9 3 17 10 17 16 0 5 5 6 12 2 7 -4
8 -3 4 4 -9 16 -10 15 -31 -8z"/>
<path d="M895 940 c-3 -5 -1 -10 4 -10 6 0 11 5 11 10 0 6 -2 10 -4 10 -3 0
-8 -4 -11 -10z"/>
<path d="M795 920 c3 -5 8 -10 11 -10 2 0 4 5 4 10 0 6 -5 10 -11 10 -5 0 -7
-4 -4 -10z"/>
<path d="M890 899 c0 -5 5 -7 10 -4 6 3 10 8 10 11 0 2 -4 4 -10 4 -5 0 -10
-5 -10 -11z"/>
<path d="M3776 902 c-3 -5 1 -9 9 -9 8 0 12 4 9 9 -3 4 -7 8 -9 8 -2 0 -6 -4
-9 -8z"/>
<path d="M447 859 c7 -7 15 -10 18 -7 3 3 -2 9 -12 12 -14 6 -15 5 -6 -5z"/>
<path d="M585 851 c-3 -5 -1 -12 5 -16 5 -3 10 1 10 9 0 18 -6 21 -15 7z"/>
<path d="M611 834 c0 -11 3 -14 6 -6 3 7 2 16 -1 19 -3 4 -6 -2 -5 -13z"/>
<path d="M435 820 c3 -5 8 -10 11 -10 2 0 4 5 4 10 0 6 -5 10 -11 10 -5 0 -7
-4 -4 -10z"/>
<path d="M1765 809 c-4 -6 -5 -12 -2 -15 2 -3 7 2 10 11 7 17 1 20 -8 4z"/>
<path d="M465 800 c-3 -6 1 -7 9 -4 18 7 21 14 7 14 -6 0 -13 -4 -16 -10z"/>
<path d="M635 780 c3 -5 8 -10 11 -10 2 0 4 5 4 10 0 6 -5 10 -11 10 -5 0 -7
-4 -4 -10z"/>
<path d="M3875 741 c-3 -5 -2 -12 3 -15 5 -3 9 1 9 9 0 17 -3 19 -12 6z"/>
<path d="M3901 724 c0 -11 3 -14 6 -6 3 7 2 16 -1 19 -3 4 -6 -2 -5 -13z"/>
<path d="M1655 670 c-4 -6 -11 -8 -16 -5 -5 4 -9 1 -9 -4 0 -15 11 -13 34 4
11 8 15 15 9 15 -7 0 -15 -5 -18 -10z"/>
<path d="M2269 523 c-13 -16 -12 -17 4 -4 16 13 21 21 13 21 -2 0 -10 -8 -17
-17z"/>
<path d="M2246 462 c-3 -5 1 -9 9 -9 8 0 12 4 9 9 -3 4 -7 8 -9 8 -2 0 -6 -4
-9 -8z"/>
<path d="M1594 452 c3 -5 0 -13 -6 -15 -8 -3 -6 -6 5 -6 19 -1 23 14 5 25 -6
4 -8 3 -4 -4z"/>
<path d="M1550 441 c0 -6 4 -13 10 -16 6 -3 7 1 4 9 -7 18 -14 21 -14 7z"/>
<path d="M1566 397 c3 -10 9 -15 12 -12 3 3 0 11 -7 18 -10 9 -11 8 -5 -6z"/>
<path d="M2264 402 c4 -3 14 -7 22 -8 9 -1 13 0 10 4 -4 3 -14 7 -22 8 -9 1
-13 0 -10 -4z"/>
<path d="M1590 389 c0 -5 5 -7 10 -4 6 3 10 8 10 11 0 2 -4 4 -10 4 -5 0 -10
-5 -10 -11z"/>
<path d="M4027 376 c-3 -8 1 -20 9 -27 12 -10 12 -13 -3 -25 -10 -7 -16 -14
-13 -14 32 -7 37 -6 36 8 0 9 9 21 21 27 14 7 19 16 13 24 -4 8 -12 11 -18 7
-6 -3 -13 -2 -17 4 -9 14 -22 12 -28 -4z m49 -8 c4 4 2 -1 -5 -11 -10 -13 -17
-15 -27 -6 -8 6 -11 15 -8 21 4 5 11 5 18 -1 7 -6 17 -7 22 -3z"/>
<path d="M1460 266 c0 -2 8 -10 18 -17 15 -13 16 -12 3 4 -13 16 -21 21 -21
13z"/>
<path d="M2255 220 c3 -5 8 -10 11 -10 2 0 4 5 4 10 0 6 -5 10 -11 10 -5 0 -7
-4 -4 -10z"/>
<path d="M1548 173 c6 -2 18 -2 25 0 6 3 1 5 -13 5 -14 0 -19 -2 -12 -5z"/>
<path d="M1656 165 c-9 -26 -7 -32 5 -12 6 10 9 21 6 23 -2 3 -7 -2 -11 -11z"/>
<path d="M1746 158 c10 -14 21 -24 23 -22 3 3 -6 15 -18 27 l-24 22 19 -27z"/>
<path d="M1820 175 c0 -5 5 -17 10 -25 5 -8 10 -10 10 -5 0 6 -5 17 -10 25 -5
8 -10 11 -10 5z"/>
<path d="M1910 171 c0 -6 5 -13 12 -17 6 -4 8 -3 4 4 -3 5 0 13 6 15 8 3 6 6
-4 6 -10 1 -18 -3 -18 -8z"/>
<path d="M1958 173 c7 -3 16 -2 19 1 4 3 -2 6 -13 5 -11 0 -14 -3 -6 -6z"/>
<path d="M1998 173 c7 -3 16 -2 19 1 4 3 -2 6 -13 5 -11 0 -14 -3 -6 -6z"/>
<path d="M2038 173 c7 -3 16 -2 19 1 4 3 -2 6 -13 5 -11 0 -14 -3 -6 -6z"/>
<path d="M2102 160 c0 -14 2 -19 5 -12 2 6 2 18 0 25 -3 6 -5 1 -5 -13z"/>
<path d="M3428 173 c6 -2 18 -2 25 0 6 3 1 5 -13 5 -14 0 -19 -2 -12 -5z"/>
<path d="M3535 170 c6 -10 4 -12 -8 -7 -10 3 -17 2 -17 -3 0 -13 27 -13 35 -1
3 5 0 13 -6 17 -8 5 -9 3 -4 -6z"/>
<path d="M3681 175 c-1 -19 17 -39 38 -42 23 -3 37 12 20 23 -8 5 -9 3 -5 -5
6 -8 2 -11 -10 -9 -11 2 -24 12 -31 23 -7 11 -12 16 -12 10z"/>
<path d="M3814 157 c1 -12 8 -21 15 -19 9 2 11 -5 6 -20 -5 -20 -4 -21 5 -5
13 20 4 41 -12 31 -7 -5 -9 -1 -5 9 3 9 2 19 -2 21 -5 3 -8 -5 -7 -17z"/>
<path d="M1770 165 c0 -2 10 -10 23 -16 20 -11 21 -11 8 4 -13 16 -31 23 -31
12z"/>
<path d="M1855 160 c-3 -6 1 -7 10 -4 11 5 14 2 9 -12 -5 -15 -4 -16 4 -4 11
15 7 30 -8 30 -5 0 -12 -4 -15 -10z"/>
<path d="M2195 159 c-11 -16 -1 -19 13 -3 7 8 8 14 3 14 -5 0 -13 -5 -16 -11z"/>
<path d="M3607 159 c7 -7 15 -10 18 -7 3 3 -2 9 -12 12 -14 6 -15 5 -6 -5z"/>
<path d="M3857 158 c-7 -5 0 -6 17 -4 16 3 31 7 33 10 8 8 -37 2 -50 -6z"/>
<path d="M3950 160 c0 -5 9 -14 20 -20 11 -6 20 -9 20 -8 0 2 -9 11 -20 21
-11 9 -20 13 -20 7z"/>
<path d="M3990 158 c0 -4 5 -8 11 -8 5 0 7 -5 3 -12 -5 -7 -3 -8 6 -3 10 6 12
4 7 -8 -3 -10 -2 -17 3 -17 13 0 13 27 0 35 -6 4 -8 10 -6 14 3 4 -1 8 -9 8
-8 0 -15 -4 -15 -9z"/>
<path d="M1944 144 c-18 -14 -18 -15 4 -4 12 6 22 13 22 15 0 8 -5 6 -26 -11z"/>
<path d="M3430 150 c-9 -6 -10 -10 -3 -10 6 0 15 5 18 10 8 12 4 12 -15 0z"/>
<path d="M3660 149 c0 -5 -4 -8 -8 -5 -4 2 -14 0 -22 -5 -11 -7 -9 -8 9 -6 21
3 45 27 27 27 -3 0 -6 -5 -6 -11z"/>
<path d="M1670 141 c0 -10 29 -36 34 -30 1 2 -6 12 -16 22 -10 9 -18 13 -18 8z"/>
<path d="M1697 137 c3 -4 12 -7 21 -5 10 2 25 -6 35 -17 18 -20 18 -20 3 4 -9
14 -26 25 -40 26 -13 0 -22 -3 -19 -8z"/>
<path d="M1890 129 c-7 -11 -10 -23 -7 -25 2 -2 9 7 15 21 14 30 7 33 -8 4z"/>
<path d="M1976 141 c-4 -5 -1 -13 5 -17 8 -4 9 -3 5 4 -4 7 -3 12 3 12 5 0 12
-5 14 -10 3 -6 4 -5 3 2 -3 16 -23 22 -30 9z"/>
<path d="M3457 143 c-2 -4 0 -17 4 -28 9 -18 9 -18 5 3 -3 17 1 22 16 22 10 0
17 -4 13 -9 -9 -15 13 -23 32 -11 16 9 15 10 -5 5 -16 -5 -22 -3 -20 7 3 14
-37 24 -45 11z"/>
<path d="M3553 124 c0 -17 2 -22 7 -13 5 6 6 18 3 26 -8 19 -10 16 -10 -13z"/>
<path d="M3793 124 c0 -17 2 -22 7 -13 5 6 6 18 3 26 -8 19 -10 16 -10 -13z"/>
<path d="M3899 148 c-8 -34 -8 -51 0 -38 5 8 7 18 5 22 -3 4 4 8 16 8 12 0 19
-4 16 -8 -2 -4 0 -14 5 -22 7 -11 8 -8 6 10 -3 17 -11 26 -25 28 -12 2 -22 2
-23 0z"/>
<path d="M1546 125 c-9 -26 -7 -32 5 -12 6 10 9 21 6 23 -2 3 -7 -2 -11 -11z"/>
<path d="M2037 125 c-4 -8 -3 -16 1 -19 4 -3 9 4 9 15 2 23 -3 25 -10 4z"/>
<path d="M3871 124 c0 -11 3 -14 6 -6 3 7 2 16 -1 19 -3 4 -6 -2 -5 -13z"/>
<path d="M1635 120 c3 -5 8 -10 11 -10 2 0 4 5 4 10 0 6 -5 10 -11 10 -5 0 -7
-4 -4 -10z"/>
<path d="M1780 119 c0 -5 5 -7 10 -4 6 3 10 8 10 11 0 2 -4 4 -10 4 -5 0 -10
-5 -10 -11z"/>
<path d="M1810 125 c0 -8 29 -12 39 -5 9 5 4 8 -13 8 -14 0 -26 -2 -26 -3z"/>
<path d="M1910 126 c0 -3 9 -10 20 -16 11 -6 20 -8 20 -6 0 3 -9 10 -20 16
-11 6 -20 8 -20 6z"/>
<path d="M1962 114 c10 -10 20 -16 22 -13 3 3 -5 11 -17 18 -21 13 -21 12 -5
-5z"/>
<path d="M2094 119 c-4 -7 -3 -9 4 -5 5 3 13 0 15 -6 4 -9 6 -10 6 -1 1 17
-16 25 -25 12z"/>
<path d="M2170 120 c0 -5 5 -10 10 -10 6 0 10 5 10 10 0 6 -4 10 -10 10 -5 0
-10 -4 -10 -10z"/>
<path d="M3750 120 c0 -5 7 -7 15 -4 8 4 15 8 15 10 0 2 -7 4 -15 4 -8 0 -15
-4 -15 -10z"/>
<path d="M4037 111 c-4 -17 -3 -21 5 -13 5 5 8 16 6 23 -3 8 -7 3 -11 -10z"/>
<path d="M3590 109 c0 -5 5 -7 10 -4 6 3 10 8 10 11 0 2 -4 4 -10 4 -5 0 -10
-5 -10 -11z"/>
<path d="M3630 110 c-8 -5 -10 -10 -5 -10 6 0 17 5 25 10 8 5 11 10 5 10 -5 0
-17 -5 -25 -10z"/>
<path d="M3710 110 c8 -5 20 -10 25 -10 6 0 3 5 -5 10 -8 5 -19 10 -25 10 -5
0 -3 -5 5 -10z"/>
</g>
</svg>
